<svg id="Layer_1" data-name="Layer 1" xmlns="http://www.w3.org/2000/svg" viewBox="0 0 2797.06 1372.79"><defs><style>.cls-1{fill:#ebf3fa;}.cls-2{fill:#f8fbff;}.cls-3{fill:#e1efff;}.cls-4{fill:#d9e9fc;}.cls-5{fill:#8cb7ea;}.cls-6{fill:#b4d5ef;}.cls-7{fill:#afd295;}.cls-8{fill:#82b378;}.cls-9{fill:#233862;}.cls-10{fill:#e8945b;}.cls-11{fill:#f99f46;}.cls-12{fill:#d86713;opacity:0.4;isolation:isolate;}.cls-13{fill:#c65447;}.cls-14{fill:#ffb27d;}.cls-15{fill:#b84c42;}.cls-16{fill:#aa3e39;}.cls-17{fill:#2c3a64;}.cls-18{fill:#c0783d;}.cls-19{fill:#2b478b;}.cls-20{fill:#466aa5;}.cls-21{fill:#fff;}.cls-22{fill:#2e3552;}</style></defs><title>Hero-img-1</title><path class="cls-1" d="M92.75,1332.59c.09.48.18.94.29,1.42l41.75-.14,647.23-2,427.09-1.3h13l30.06-.09,390.71-1.2,900.25-2.77h0l33.05-.09h0l22.92-.07h19.08s.87-1.44,2.45-4.22l.48-.83,2-3.53c4.21-7.67,10.85-20.28,18.66-37q3-6.5,6.29-13.84c1.71-3.89,3.47-7.94,5.24-12.16q.89-2.1,1.79-4.27c.62-1.48,1.24-3,1.86-4.49,3.27-8,6.61-16.56,9.93-25.57h0q4.92-13.3,9.75-27.95c.06-.21.14-.42.21-.64q2.67-8.19,5.28-16.76,3.82-12.56,7.37-25.9,3.38-12.74,6.45-26.11c3.61-15.78,6.82-32.19,9.46-49.15A637.36,637.36,0,0,0,2713.2,966a547.06,547.06,0,0,0-12-107.05c-19.6-90.9-65.41-184.49-154.26-270.13-326.78-314.89-607.83-140.43-750.42-149.18-25.56-1.57-48-11.72-70.07-27.8C1686,382.36,1646.9,333,1592.33,280c-81.81-79.47-198.33-167.1-406-208-257-50.67-610-36.47-762.69,115.82-92.44,92-111.53,234.67,8.27,444q10.93,19.09,23.41,38.94,10.5,16.67,18.33,31.85c13.18,25.45,21,47.88,24.27,67.87,7.91,48-10.25,82.06-42.79,110a267.27,267.27,0,0,1-31.37,22.86c-38,24-86.06,44.65-134,68.84-26.44,13.36-52.84,27.79-77.49,44.49-22.89,15.51-44.27,33-62.76,53.29a252.44,252.44,0,0,0-32.17,43.77c-.52.9-1,1.8-1.54,2.7a243.87,243.87,0,0,0-26.41,72.26c-.28,1.38-.54,2.76-.79,4.15C81.44,1232.14,81.94,1278.16,92.75,1332.59Z"/><path class="cls-2" d="M431.91,631.74,1875.29,877.18,1978.84,753,423.59,187.57C331.2,279.7,312.11,422.39,431.91,631.74Z"/><path class="cls-3" d="M93,1334l689-2.12,427.09-1.31h13l30.06-.09c274.61-152.38,358.3-312.16,358.3-312.16-9.83-2.46-712.6-147.29-1186.7-115-38,24-86.06,44.66-134,68.85-26.44,13.36-52.84,27.79-77.49,44.49C124.46,1076.13,58.89,1164.27,93,1334Z"/><path class="cls-4" d="M93,1334l2525.16-7.76s135.43-224.07,83-467.46c-31.1,21.13-66.35,36.43-88.75,19-28.27-22-109.22-86.21-170.52-134.9h0c-42.17-33.5-75-59.66-75-59.66s-34.44-33.13-57-23.85c-10.42,4.29-20.58,14.55-29.51,23.94l-.09.08c-10.34,10.86-19.06,20.51-24.74,18.38-5.14-1.93-42.94-40.58-86.9-83.51-46.73-45.67-100.41-96.22-129.1-112.6,0,0-26.68-27.34-55.65,4-14.83,16-37.65,57-63.15,106.31C1862,729.65,1788.89,887.52,1766.71,885.41c-31.8-3-81.28-73.69-111.31-80.76s-166.87,240.14-225.18,250.74-169.63-79.52-259.75-53-235.94,174.93-371.1,148.43C691.19,1129.6,446.53,1010,289.8,972.15,169.1,1033.1,49.32,1116.64,93,1334Z"/><path class="cls-5" d="M89.43,1188.66l4.71-1.61c4.92-1.46,12.95-3.21,20.45-2.1,7.9,1.17,21.21,10.91,29.31,17.36-3.77-6.37-7.24-14.37-8.1-23.11-2.11-21.16,6.18-45.06,19.43-29.28,9.61,11.44,5.3,41.62,2.19,57.38,5.12,2,10.28,4.2,15.44,6.57,6.34-22.34,15.44-48.94,27.87-74.85,5.92-12.36,124.33,9.84,174.53,39.28,80,46.88,328.73-.34,406.48,12s226.91,70.15,371.8,31.28,622-63.61,761.53-88.34c122.84-21.77,565.41-149.69,798.09-167.42a637.36,637.36,0,0,1-7.8,107.94c-22.78,145.94-87.18,252.47-87.18,252.47L782,1331.89l-328-3.09-362.64-3.41C81.53,1272.18,81.76,1227.17,89.43,1188.66Z"/><path class="cls-6" d="M91.8,1327.7,454,1328.79l328,3.09,427.08-1.31h13l30.06-.09,390.71-1.2,975.32-3s64.39-106.53,87.18-252.47c-185.35,16-552.49,50.85-991.53,106.18-630.84,79.52-959.61,132-1302.39,25.85-63.23-19.58-118-37.23-166-52.57q-23.39-7.48-44.68-14.22-21-6.66-40.18-12.56c-14.52-4.44-29.72-9.62-42.78-13.36-.92,1.53-1.21,2.1-1.87,3.27a243.83,243.83,0,0,0-26.4,72.26C81.76,1227.17,82,1274.51,91.8,1327.7Z"/><path class="cls-7" d="M91.8,1327.7,782,1331.88l427.09-1.31h13l30.06-.09,390.71-1.2,975.84-3.87s1.27-2.09,4.37-7.71c4.21-7.67,10.85-20.28,18.66-37-104-36.34-304.13-156.55-482-99.55-265.06,84.93-1315.3,144.68-1503.5,110.22s-359.21-77.18-427.4-13.88C210.37,1294.64,106.34,1248,91.8,1327.7Z"/><path class="cls-8" d="M2621.12,1321.19l2-3.53c4.21-7.67,10.85-20.28,18.66-37q3-6.51,6.28-13.84,2.57-5.83,5.25-12.16l1.79-4.27c.6-1.44,1.24-3,1.85-4.5-44.9-105.18-145.89-314.82-240.27-288.68C2323.6,983,2517.47,1208.89,2621.12,1321.19Z"/><path class="cls-8" d="M2682.09,1174.94q3.82-12.56,7.37-25.9,3.38-12.73,6.45-26.11c-18.6-94.29-48.91-209.37-85.47-205.14C2567.07,922.78,2636.86,1081.31,2682.09,1174.94Z"/><path class="cls-8" d="M2329.4,1232.62c31.41,16.75,122.1,58.67,199.28,93.86h0l40.75-.12h0l28.25-.09c-65.82-61.29-181-150.76-282-149.77a20,20,0,0,0-19.6,16.54C2294.53,1203.09,2300.18,1217,2329.4,1232.62Z"/><path class="cls-2" d="M1920.73,615.94c14,4.51,33.45,6.92,35.87-11.86,3.53-27.39,82.16,25.62,122.8,37.1s17.67-35.34,18.55-48.59c.54-8.1,40,10.21,70.68,25.67-46.73-45.67-100.41-96.22-129.1-112.6,0,0-26.68-27.34-55.65,4C1969,525.67,1946.22,566.65,1920.73,615.94Z"/><path class="cls-2" d="M2280.34,683.31c.89-.8,8.46-7,22.27.08,14.72,7.55,34.15,11.68,43,9s96.27,50.48,96.27,50.48h0c-42.17-33.5-75-59.66-75-59.66s-34.44-33.13-57-23.85C2299.42,663.66,2289.27,673.92,2280.34,683.31Z"/><path class="cls-2" d="M974.11,163.48l752.29,248.2c-40.43-29.47-79.55-78.86-134.12-131.88Z"/><circle class="cls-2" cx="997.33" cy="279.36" r="33.08"/><path class="cls-9" d="M1724.15,316.78s-46.86-24.68-114-29.61A78.79,78.79,0,0,0,1529.53,341q-1,3-1.87,6.16c-15.75,56.73-7.13,228.48,45.87,273.29s150.62,25.9,150.62,25.9Z"/><polygon class="cls-8" points="1641.82 240.43 1755.95 259.72 1747.25 298.95 1642.63 323.72 1641.82 240.43"/><path class="cls-10" d="M2053.86,487.54c-5.14-3.67-9.8,9.61-16.22,9.07-1.48-.12,6.44-7.9,8.33-10.62s1.48-4.21.11-5-19.57,9.14-23.29,13.18c-2.28,2.48-7.22,11.59-10.69,18.25v-.07s-103.55,7.66-124.44,5.87c-15.16-1.19-22.61-108.34-23.79-108.12-19.75,3.25-58.12,11.34-81.81,27.41a7.39,7.39,0,0,1-2.86,1.44c9,33.15,22.54,72.08,42.14,108.3a68,68,0,0,0,65.07,35.57c36.14-2.8,89.23-12.12,134.45-40.87,0,0,23.4-11.9,34.3-21.5C2070,507.39,2059,491.22,2053.86,487.54Z"/><path class="cls-11" d="M1871.75,700.39s-7,87.7-13.7,173c-9.09,115.93-43.69,404.79-43.69,404.79s7.33,11.52-28.27,4c0,0-43.63-98.39-52.69-211.57L1733,1065c-8.43-115.21-21.54-357.82-21.54-357.82Z"/><path class="cls-12" d="M1872.38,692.53s-7.63,95.53-14.32,180.87L1733.4,1070.64l-.42-5.59c-8.43-115.21-21.54-357.82-21.54-357.82Z"/><path class="cls-11" d="M1865,697.34l-290.69,553.3s-27.06,12.14-30.57,1.6c0,0,25.79-253.5,71-310.37,25.52-32.13,55.5-128.56,56.9-162.28s9.41-105,9.41-105Z"/><path class="cls-9" d="M1623.75,1328.58s-42.19.61-54.41-11.36c-1.44-1.41-6.09-15.55-6.13-15.7-.37-1.14-2.52-6.33-11.22-9.24-5.73-1.92-10.5-1.86-16-4a149.38,149.38,0,0,1-15.68-7.63c-13.07-7.63-10.09-11.66-10.09-11.66s2.88-2.61,6.67-6.42c1-1,2.12-2.17,3.23-3.36,5.66-6,12-13.6,13.57-19a18.4,18.4,0,0,1,6.41-9.54,17.47,17.47,0,0,1,6-3.14s4.61,18.5,13.73,16.19c17.63-4.47,20.93-3.95,21.54-3.67l.14.11s14.41,27.94,18.43,37.91c7.14,17.76,16.3,24.47,22.05,30.31a15.84,15.84,0,0,1,3.25,4.78C1628.24,1319.88,1626,1327.32,1623.75,1328.58Z"/><path class="cls-13" d="M1623.75,1328.58s-42.19.61-54.41-11.36c-1.44-1.41-6.09-15.55-6.13-15.7-.37-1.14-2.52-6.33-11.22-9.24-5.73-1.92-10.5-1.86-16-4a149.38,149.38,0,0,1-15.68-7.63c-13.07-7.63-10.09-11.66-10.09-11.66s2.88-2.61,6.67-6.42c1-1,2.12-2.17,3.23-3.36,1.38,5.37,5.18,14.94,15.28,18.85,14.4,5.59,29.87,15.19,34.4,22.92s7.47,14.67,16.27,17.6,31.74,3.73,33.34,2.93c1.28-.64,2.55-6.34,5.84-8.37C1628.24,1319.88,1626,1327.32,1623.75,1328.58Z"/><path class="cls-9" d="M1781,1328.68h17.44c5.84-.92,10.16-2.61,16.15-3.39,9.1-1.19,13.29,2.54,14.12,3.39l.16.17H1903c1.86-2.66.07-8.83-1.68-13.37a10.54,10.54,0,0,0-6.94-6.34c-7.86-2.28-23.35-4.3-37.54-17.14-8-7.21-38.54-26.52-38.54-26.52h-.16c-.67,0-3.87,1-17.77,12.73-7.19,6.06-19.43-8.55-19.43-8.55a17.46,17.46,0,0,0-4,5.45,18.42,18.42,0,0,0-1.59,11.38c1.11,6.68-2.46,19.08-5.31,27.48-1.73,5.08-3.18,8.69-3.18,8.69S1766,1326.8,1781,1328.68Z"/><path class="cls-13" d="M1781,1328.93h17.37c5.84-.92,10.2-2.86,16.19-3.64,9.1-1.19,13.29,2.54,14.12,3.39l.16.17H1903c1.86-2.66.07-8.83-1.68-13.37-2.25-2-2.88,8.69-4.13,10.39s-60.45.62-63.87-1.87-13.68-6.84-28-3.42c-12.45,3-30.79-4.65-35.32-6.68-1.73,5.08-3.18,8.69-3.18,8.69S1766,1327.05,1781,1328.93Z"/><path class="cls-14" d="M1712.89,306.89s69.43,34.17,109.56,21.51a96.26,96.26,0,0,0-27.1-22.09c1-5.84,1.77-11.18,2.39-15.93a249.64,249.64,0,0,0,2.31-27l-42.52-34.3-9.54-7.69a121.15,121.15,0,0,1-1.3,22.63c-.08.55-.16,1.1-.25,1.63C1739.53,286.93,1712.89,306.89,1712.89,306.89Z"/><path class="cls-15" d="M1673.26,670.39c-.21,4.42,8.9,9.28,12.86,11,17.55,7.87,34.4,14.33,51.68,18.91a228.27,228.27,0,0,0,37.2,6.74c37.18,3.82,81.11-4.56,96.19-4.35a6.55,6.55,0,0,0,4.22-1.6c1-.81,1.81-46.22,1-103.49,0-2.2,0-4.63-.2-6.83V590c-.2-22.31-1-45.82-2-69.12-2.2-51.44-6.22-101.08-13.06-128.61-8-32.34-26.51-53.65-43.4-69.32l-12-11.93a3.23,3.23,0,0,0-2.87-.87c-13.42,2.47-28.11,2.27-42.2-4.68-15.87-7.83-33.16-16.28-36-14.26-33,24.62-49.35,97.36-49,180.07,0,2.61,0,5.23.07,7.86.15,8.54.46,17.18.95,25.86,3.59,61-.09,113.91-2.19,144.67C1673.88,658.53,1673.4,665.54,1673.26,670.39Z"/><path class="cls-16" d="M1673.26,670.39c-.21,4.42,8.9,9.28,12.86,11,17.55,7.87,34.4,14.33,51.68,18.91,47.94-154.9-9.46-305-9.46-305l-52.61,83.83c.15,8.54.46,17.18.95,25.86,3.59,61-.09,113.91-2.19,144.67C1673.88,658.53,1673.4,665.54,1673.26,670.39Z"/><path class="cls-15" d="M1747,419.45c-17.19-10.19-51.7-28.67-80.22-31.59a9.28,9.28,0,0,1-7.55-12.94c9-20.59,34.47-63.68,65.46-83.7,2.91-1.88,5.1-.24,8.12,1.45,11.44,6.42,36.07,25.4,37.59,47.79,1.34,19.91-5.48,54.44-9.6,73a9.28,9.28,0,0,1-13.8,6Z"/><path class="cls-10" d="M1746.06,245l.34.63c2.68,4.81,21,35.83,51.34,44.72a249.64,249.64,0,0,0,2.31-27l-42.52-34.29A119.52,119.52,0,0,0,1746.68,244Z"/><path class="cls-14" d="M1812.32,262.39s-66.28,11-72.5-30.37-19-67.83,23.09-76.61,52.67,5.77,58.11,19.08S1829.41,258.49,1812.32,262.39Z"/><path class="cls-17" d="M1831.3,150.54c-13.77-6.34-80.77-38.15-109.48-9.15a81.54,81.54,0,0,1-.44-9.72c-2.09,3.78-3,9.34-3.44,13.29-2.56-3.08-7.31-3.59-7.31-3.59a10.26,10.26,0,0,1,5.43,7.27c-28.46,42.33,14.76,85.4,20.7,92.11,6.13,6.93,9.64,4.89,9.64,4.89s10.82-14.65,5.56-24.26c0,0-8.8-8.89-3.73-14.49s8,2.93,12,2.67,11.2-12,11.74-22.67,39,5.61,54.49.54S1855.53,161.69,1831.3,150.54Z"/><path class="cls-9" d="M1674.28,516.39l-2.05-12.64c30.72-5,55.58-19.75,73.89-43.88,13.81-18.21,23.54-42.07,26.69-65.46,6.09-45.32-5.83-71.11-36.46-78.86-27.44-6.94-59.14,14.5-59.46,14.71l-7.26-10.54c1.49-1,36.74-25,69.86-16.58,25.81,6.53,54.75,28,46,93-2,15-8.49,44.22-29.18,71.49C1736,494.49,1708.36,510.9,1674.28,516.39Z"/><ellipse class="cls-7" cx="1632.57" cy="282.18" rx="40.69" ry="42.87"/><path class="cls-8" d="M1603.67,283.3A37.29,37.29,0,0,1,1641,246h0a21.84,21.84,0,0,1,2.69.11,37.29,37.29,0,1,0-12.37,73.2A37.3,37.3,0,0,1,1603.67,283.3Z"/><rect class="cls-18" x="2036.4" y="467.26" width="10.71" height="739.05"/><rect class="cls-9" x="2031.79" y="459.29" width="19.93" height="95.17" rx="6.84" ry="6.84"/><path class="cls-9" d="M2052.28,1211h-21.06a5.31,5.31,0,0,1-5.31-5.31h0a5.31,5.31,0,0,1,5.31-5.31h21.06a5.31,5.31,0,0,1,5.31,5.31h0a5.31,5.31,0,0,1-5.31,5.31Z"/><path class="cls-18" d="M2041.78,1231.51h0a3.69,3.69,0,0,1-3.67-3.32l-1.72-17.2h10.71l-1.65,17.18A3.69,3.69,0,0,1,2041.78,1231.51Z"/><rect class="cls-18" x="1260.45" y="856.6" width="739.05" height="10.71" transform="translate(-51.32 1618.95) rotate(-52.11)"/><path class="cls-9" d="M1806,641l-4.93-3.84a6.84,6.84,0,0,1-1.2-9.6h0l50-64.31a6.84,6.84,0,0,1,9.6-1.2h0l4.93,3.84a6.84,6.84,0,0,1,1.2,9.6h0l-50,64.31a6.84,6.84,0,0,1-9.6,1.2Z"/><path class="cls-9" d="M1408.65,1163.7,1392,1150.77a5.31,5.31,0,0,1-.93-7.45h0a5.31,5.31,0,0,1,7.45-.93l16.62,12.93a5.31,5.31,0,0,1,.93,7.45h0A5.31,5.31,0,0,1,1408.65,1163.7Z"/><path class="cls-18" d="M1387.77,1173.45h0a3.69,3.69,0,0,1-.86-4.88l9.21-14.63,8.45,6.57-11.85,12.55A3.69,3.69,0,0,1,1387.77,1173.45Z"/><path class="cls-14" d="M1851.88,603.39c-1.19-4.65-14.47-2.89-22.76-3.78a3.84,3.84,0,0,1-2.64-6.14l4.08-5.41c-6.09-1.24-13.18-2.23-16.06-1.86-3.34.42-13,4.21-19.93,7.08v-.08s-84.13-60.85-99-75.67c-10.83-10.68,52.5-97.43,51.46-98-17.2-10.23-51.76-28.77-80.23-31.74a7.39,7.39,0,0,1-3.12-.74c-14.43,31.18-29.2,69.65-37.53,110A68,68,0,0,0,1653,566.16c29.44,21.14,76.06,48.22,129.18,55.36,0,0,28.53,11,43.05,10.68C1845.08,631.74,1853.44,609.54,1851.88,603.39Z"/><path class="cls-10" d="M2027.34,490.63s13.44-11,18.69,1.77c3.67,8.93-1.51,15.78-5,19.1a3.65,3.65,0,0,1-5.86-1.08,11.08,11.08,0,0,1-.27-7.31l-12.29,26.57Z"/><path class="cls-10" d="M2051.71,486.92s-8.06-.37-8.86,13.31-2.37,33.18,9.22,22.74S2051.71,486.92,2051.71,486.92Z"/><rect class="cls-18" x="971.53" y="985.87" width="631.98" height="10.71" transform="matrix(0.5, -0.87, 0.87, 0.5, -215.74, 1608.02)"/><path class="cls-11" d="M1057.75,750.16c1.44,3.5,7.7,6.6,16.72,8.84,20.21,5,54.29,5.69,79.15-3.51,26.65-9.87,46-150.74,54.2-222.94,2.87-25.18,4.38-42,4.38-42s-15.31-24-74.57-16-65.24,28-70.56,63.91S1053.09,738.84,1057.75,750.16Z"/><polygon class="cls-16" points="1111.95 427.25 1226.08 446.54 1217.37 485.77 1112.76 510.54 1111.95 427.25"/><ellipse class="cls-15" cx="1102.7" cy="468.99" rx="40.69" ry="42.87"/><path class="cls-16" d="M1073.8,470.11a37.29,37.29,0,0,1,37.29-37.29h0a21.84,21.84,0,0,1,2.69.11,37.29,37.29,0,1,0-12.37,73.2A37.3,37.3,0,0,1,1073.8,470.11Z"/><path class="cls-10" d="M1440.3,753.14c-.5-6.83-10.41-12.69-16.7-14.47-5-1.43-11.57-8.45-14-11.19-22.47-28.45-55.85-86.62-64.19-96.68-3-3.67-12.32-22.44-24.36-46.62-8.1-16.25-17.44-35-26.94-53.12-14.48,5.25-32,12.46-47.08,21.12,9.08,14.51,21.17,33.89,31.82,51.3,9.81,16,18.4,30.36,22.33,37.63,12,22.35,94.23,97.67,94.23,97.67l4.58,4.6a20.09,20.09,0,0,1,2.41,2.93c2.57,3.8,7.33,11.48,14.68,18.16,4.47,4.06,7.42,6.66,15.72,5.61C1443.3,768.75,1440.79,760,1440.3,753.14Z"/><path class="cls-9" d="M1291.29,513.92s41,81.89,46.93,94.75c0,0-21.72,43.14-35.84,42.87S1291.29,513.92,1291.29,513.92Z"/><path class="cls-9" d="M1189.64,330.79c-.64-2.23-8.73-27.35-47.91-19,0,0,19.62-2.47,25,5.09,0,0-15.55-7.12-25.29-1.16s-11.34,26-9.88,32.12,12.21,24.27,19.33,24.27a21.08,21.08,0,0,0,8.12-2,94.61,94.61,0,0,0-2.89,10.59c-7.56,35.59,16.1,62.64,28.34,56,7.85-4.29,13.79,9.45,13.79,9.45l65.13-86.33S1218,305.21,1189.64,330.79Z"/><path class="cls-14" d="M1291.95,757.29c-29.55-94.46,2.83-115-.24-162.27s-39.67-98.1-39.67-98.1-1.86-.19-5-.47c-2.46-1.29-3.11-11.57-3.08-22.42,0-13,1-26.83,1-26.83l-43.89-8.69-2.61-.51c.11,30.55-7.93,50.61-13.76,55.28-5.48.63-28.87,3.57-43.27,9.6-5.43,2.27-9.58,5-11,8.15-12.05,26.5-24.09,93.39-32.54,141.1-4.71,26.59-15.11,60.2-7.37,67.34l45.5-17.25c1.71-8.09,4.63-24.84,9.52-43,.74-2.74-.22-6.06.54-8.88,8.62,23.38,13,34.21,12.79,44.31-.34,14.38-10.09,27.3-30.47,73C1117.1,792.93,1322.12,853.77,1291.95,757.29Z"/><path class="cls-10" d="M1245,447.21s-1,13.81-1,26.83c-24.56-.69-37.54-23.1-42.86-35.52Z"/><path class="cls-9" d="M1196.53,433.75s-12.87-20.34-16-37.73c-2.21-12.42,4.12-58.43,50.36-51.81a62.83,62.83,0,0,1,26.06,9.85c10,6.78,24.53,21.42,8.33,61.58l-4.21,13.57Z"/><path class="cls-14" d="M1253.16,459.54s-58.11,1-58.15-35.24-7.57-60.45,29.53-62.59,44.33,11.66,47.28,23.74S1268.27,458.39,1253.16,459.54Z"/><path class="cls-15" d="M1334.25,1303.14l-18.65,4.59a574.35,574.35,0,0,1-53.7-94.94c-15.45-34.71-28.89-74.34-31.6-111.18-1.23-16.67-.26-32.77,3.72-47.59,0,0-5.22-35-12.34-81.8-7.91-52-18.18-118.44-26.22-167.31l4.85-1.44,104.06-30.9s20.35,79.74,11,204.68c-1.91,25.63-5.07,53.17-9.91,82.31-8.27,49.81-4.87,99.87,2,141.55C1317.33,1260.71,1334.25,1303.14,1334.25,1303.14Z"/><path class="cls-16" d="M1315.42,977.25l-81.56,150.58c-2.25-13.76-9.45-38.33.17-73.81,0,0-5.22-35-12.34-81.8-7.91-52-18.18-118.44-26.22-167.31l4.85-1.44,104.06-30.9S1324.73,852.31,1315.42,977.25Z"/><path class="cls-15" d="M1224.09,1062.39c-3.69,6.92-40.26,50.88-77,99.56-3.15,4.16-6.41,8.65-9.75,13.37-21.65,30.49-46.56,70.24-61.46,89.59-13.54,17.59-25.7-4.44-18.87-20.15,10.78-24.79,19.91-68.13,30.34-100a205.7,205.7,0,0,1,7.47-19.93c11.23-25.12,33.12-52.65,59.74-79.9,4.62-4.73-38.61-117.54-35.73-204.53,1.13-34.48,5.93-64.8,16.92-83.27l109.33,5.42S1260,994.86,1224.09,1062.39Z"/><path class="cls-9" d="M1270.09,365.32c-9-10.87-15.75-8.51-19.55-5.24-31.16-17.28-70.34,1.41-70.34,1.41a450.65,450.65,0,0,0-4.52,47.82s10.59,6.54,35,.26c7.45-1.92,14.11-7.2,19.76-13.62a135.52,135.52,0,0,1-23.31,28.44c29.17-13.48,40.88-54,42-58.34,3.55,3.19,10.54,10.11,12.67,16.89,2.9,9.22,4.2,28.19,9.73,27.55C1271.53,410.51,1283.53,381.64,1270.09,365.32Z"/><path class="cls-19" d="M1114.66,800.67a25.92,25.92,0,0,0,.68,8.74c2.33,7.32,10.32,10.66,29.63,8.66,11.8-1.23,17.07-21,19.41-37.89q10.64,36.22,29.85,40.54c18.72,4.16,113.17,15.65,119.35-29.25,6.8-49.38-13.56-136.82-14.68-184a233.18,233.18,0,0,0,3.42-43.69c-.79-33.58-10.64-52.41-18.22-60-2.15-1.65-4.29-2.68-12.91-4.15-4.4-.75-10.5-1.62-19.15-2.76,0,0-3.72-.48-3.64-.35,1.6,2.86,18.79,28.17,17.12,36.49-1.75,8.72-67.84,7.46-73.07,2.67s-18.89-41-18.89-41-26.86,2.94-40,12.49l.14.17a11.1,11.1,0,0,0-3.45,3.64c-14,26.69-28,94.06-37.87,142.11,23.87,13.15,44.72,9.24,51.19,7.5C1135.1,716,1115.92,775.46,1114.66,800.67Z"/><path class="cls-11" d="M1252,496.93l.12.2c2.58,4.08,42.88,68.49,46.74,110.39a233.18,233.18,0,0,0,3.42-43.69c-5.18-15.83-28.41-51.25-40.52-65.57C1260.94,497.23,1252,496.93,1252,496.93Z"/><path class="cls-14" d="M1261.9,1212.79a574.17,574.17,0,0,0,53.69,94.95l18.65-4.59s-16.92-42.43-26.74-102C1301.66,1205.44,1289,1211,1261.9,1212.79Z"/><path class="cls-9" d="M1300.86,1328.8h12.78c4.28-.67,7.44-1.91,11.83-2.49,6.67-.87,9.73,1.86,10.34,2.49l.12.13h54.27c1.37-1.95.05-6.46-1.23-9.79a7.72,7.72,0,0,0-5.08-4.64c-5.75-1.67-17.1-3.15-27.49-12.56-5.84-5.28-28.23-19.42-28.23-19.42H1328c-.49,0-2.83.73-13,9.32-5.26,4.43-14.23-6.27-14.23-6.27a12.79,12.79,0,0,0-2.94,4,13.49,13.49,0,0,0-1.17,8.33c.81,4.89-1.8,14-3.89,20.12-1.27,3.72-2.33,6.36-2.33,6.36S1289.87,1327.39,1300.86,1328.8Z"/><path class="cls-20" d="M1300.86,1328.8h12.78c4.28-.67,7.44-1.91,11.83-2.49,6.67-.87,9.73,1.86,10.34,2.49l.12.13h54.27c1.37-1.95.05-6.46-1.23-9.79-1.65-1.47-2.11,6.36-3,7.61s-44.27.46-46.78-1.37-10-5-20.49-2.5c-9.11,2.18-22.54-3.4-25.87-4.89-1.27,3.72-2.33,6.36-2.33,6.36S1289.87,1327.39,1300.86,1328.8Z"/><path class="cls-9" d="M1114.66,800.67c13-4.33,29.62-15.86,49.61-41.69,52.92-68.4,4.49-148.79-2-150.29s-18.71,52-18.71,52c-1.26,11.59-4.23,23.81-6.62,35.7-.24,1.19-.56,2.29-.74,3.48-2.16,13.8-.76,27-3.85,39.8-.06.26-5.66,1.15-5.72,1.42C1120.53,766.29,1115.29,788,1114.66,800.67Z"/><path class="cls-21" d="M1236.46,438.16s1.11,4.46,12.21,3.63c0,0,9.33-.69,9-5.6C1257.66,436.2,1248.53,432.82,1236.46,438.16Z"/><path class="cls-14" d="M1137.36,1175.3c-21.65,30.49-46.56,70.24-61.46,89.59-13.54,17.59-25.7-4.44-18.87-20.15,10.78-24.79,19.91-68.13,30.34-100C1094.38,1155.39,1108.69,1169.12,1137.36,1175.3Z"/><path class="cls-9" d="M1104.87,1328.91s-31.84-4-39.78-14.28c-.94-1.21-3-12.35-3-12.47-.16-.9-1.23-5-7.48-8.14-4.11-2-7.71-2.5-11.63-4.71a113.41,113.41,0,0,1-11-7.39c-9-7.12-6.37-9.84-6.37-9.84s2.44-1.66,5.7-4.13c.88-.67,1.83-1.41,2.79-2.19,4.9-3.93,10.44-9,12.22-12.9a14,14,0,0,1,5.83-6.51,13.3,13.3,0,0,1,4.84-1.73s1.52,14.42,8.64,13.64c13.75-1.51,16.18-.77,16.61-.5l.09.1s7.91,22.56,9.89,30.49c3.5,14.13,9.7,20.14,13.42,25.14a12.05,12.05,0,0,1,1.95,3.94C1109.17,1322.83,1106.73,1328.21,1104.87,1328.91Z"/><path class="cls-20" d="M1104.87,1328.91s-31.84-4-39.78-14.28c-.94-1.21-3-12.35-3-12.47-.16-.9-1.23-5-7.48-8.14-4.11-2-7.71-2.5-11.63-4.71a113.41,113.41,0,0,1-11-7.39c-9-7.12-6.37-9.84-6.37-9.84s2.44-1.66,5.7-4.13c.88-.67,1.83-1.41,2.79-2.19.47,4.19,2.33,11.79,9.52,15.8,10.26,5.73,20.89,14.58,23.5,20.88s4.08,11.83,10.4,15,23.51,6.15,24.8,5.72c1-.35,2.59-4.5,5.27-5.69C1109.17,1322.83,1106.73,1328.21,1104.87,1328.91Z"/><path class="cls-11" d="M1154.17,498l-19.35,7.32c14,14.14,37.47,42.81,47.42,84.41,14.65,61.25-40.34,81.11-40.34,81.11l-4.84,24.74-.13.82s68.6-16.47,64.61-93.37C1198.78,549.71,1170.14,513.7,1154.17,498Z"/><path class="cls-9" d="M1405,794.83l-5.4-3.13a6.84,6.84,0,0,1-2.49-9.35h0l40.86-70.5a6.84,6.84,0,0,1,9.35-2.49h0l5.4,3.13a6.84,6.84,0,0,1,2.49,9.35h0l-40.86,70.5a6.84,6.84,0,0,1-9.35,2.49Z"/><path class="cls-9" d="M1135.87,1273.93l-18.22-10.54a5.31,5.31,0,0,1-1.93-7.26h0a5.31,5.31,0,0,1,7.26-1.93h0l18.22,10.56a5.31,5.31,0,0,1,1.93,7.26h0A5.31,5.31,0,0,1,1135.87,1273.93Z"/><path class="cls-18" d="M1116.53,1286.39h0a3.69,3.69,0,0,1-1.51-4.72l7.14-15.74,9.26,5.37-10,14A3.69,3.69,0,0,1,1116.53,1286.39Z"/><rect class="cls-18" x="696.43" y="948.14" width="631.98" height="10.71" transform="translate(-366.02 769.01) rotate(-35.66)"/><path class="cls-9" d="M1200.07,822.64l-3.64-5.08A6.84,6.84,0,0,1,1198,808l66.21-47.5a6.84,6.84,0,0,1,9.55,1.56h0l3.64,5.07a6.84,6.84,0,0,1-1.56,9.55h0l-66.21,47.5a6.84,6.84,0,0,1-9.55-1.56Z"/><path class="cls-9" d="M757.93,1148.94l-12.27-17.11a5.31,5.31,0,0,1,1.22-7.41h0a5.31,5.31,0,0,1,7.41,1.22h0l12.24,17.12a5.31,5.31,0,0,1-1.22,7.41h0A5.31,5.31,0,0,1,757.93,1148.94Z"/><path class="cls-18" d="M735.14,1152.39h0a3.69,3.69,0,0,1,.56-4.92l13-11.42,6.24,8.7L740,1153.39A3.69,3.69,0,0,1,735.14,1152.39Z"/><path class="cls-14" d="M1114.4,681.73l-23.87,37.74c41.34,28.54,88.27,44.18,118.66,63.94,2.94,2.14,11.76,6.34,13.65,11.22,2.35,6.09,7.28,13.9,14.12,13.76s17.13-4.9,18.48-11.75c.58-3-2.09-1.88-8.11-7.76-5-4.87-7.06-8-7.33-11-2.33-1.8-10.88-6.11-10.88-6.11-5.31-3.12-8.75-5.22-8.75-5.22h0S1141.26,705,1114.4,681.73Z"/><path class="cls-10" d="M1427.6,752.49c.2-1.79.47-3.66.83-5.36,1.22-5.71-9.32-10.78-9.32-10.78l-6,8.5s9.71,5.85,9.52,10.81a4.52,4.52,0,0,0,1.06,3.41c-2.1,5-2.83,10.57,3.55,11.11,8.67.74,12-20.66,12-20.66S1431.6,749.05,1427.6,752.49Z"/><path class="cls-14" d="M1136.19,699.87a183.15,183.15,0,0,0,7.36-39.18S1131.53,687.39,1136.19,699.87Z"/><rect class="cls-22" x="36.52" y="1327.7" width="2724.01" height="7.23" rx="3.09" ry="3.09"/></svg>