<svg xmlns="http://www.w3.org/2000/svg" viewBox="0 0 3000 2000"><defs><style>.cls-1{isolation:isolate;}.cls-2{fill:#fff;}.cls-3{fill:#ffe2a1;}.cls-4{fill:#ffcb4a;}.cls-5{fill:#231f20;opacity:0.3;mix-blend-mode:multiply;}.cls-6{fill:#68182b;}.cls-7{fill:#c18957;}.cls-8{fill:#fff18a;}.cls-9{fill:#ff2e60;}.cls-10{fill:#ffc522;}.cls-11{fill:#af7341;}.cls-12{fill:#e2a97a;}.cls-13{fill:#ffa222;}.cls-14{fill:#ea0f4d;}.cls-15{fill:#f69;}.cls-16{fill:#f3af79;}.cls-17{fill:#fff7cf;}.cls-18{fill:#edb298;}.cls-19{fill:#e5e5e5;}.cls-20{fill:#c6c6c6;}.cls-21{fill:#f4f4f4;}.cls-22{fill:#dd9173;}.cls-23{fill:#ffddcf;}.cls-24{fill:#fbe134;}</style></defs><title>cat-accessories-img</title><g class="cls-1"><g id="Background"><rect class="cls-2" width="3000" height="2000"/><rect class="cls-3" x="55.62" y="50.65" width="946.02" height="936.01" rx="24.08" ry="24.08"/><rect class="cls-4" x="1026.99" y="50.65" width="946.03" height="936.01" rx="24.08" ry="24.08"/><rect class="cls-3" x="1998.36" y="50.65" width="946.02" height="936.01" rx="24.08" ry="24.08"/><rect class="cls-4" x="55.62" y="1013.34" width="946.02" height="936.01" rx="24.08" ry="24.08"/><rect class="cls-3" x="1026.99" y="1013.34" width="946.03" height="936.01" rx="24.08" ry="24.08"/><rect class="cls-4" x="1998.36" y="1013.34" width="946.02" height="936.01" rx="24.08" ry="24.08"/></g><g id="Stickers_2" data-name="Stickers 2"><path class="cls-5" d="M1764.09,1205.69c-26.83-4.19-27-2.75-47.13-22.83-12.39-12.34-25.57-24.16-40.37-33.56-85.38-54.23-140.44,41.15-186.2,99.27-27.14,34.47-54.41,69-84,101.39a633.68,633.68,0,0,1-47.28,47c-18.74,16.59-49.15,10.32-73.92,18.4-64.08,20.91-144,64.14-128.65,143.62,10.5,54.22,34.58,141.34,99.48,146.5,24.28,1.93,44.22,44.48,62.12,62.4,30.16,30.2,66.4,57.48,107.77,69.85,76.81,23,154.65-33.85,163.32-113.79,3-27.43-9.44-53.45-34.05-66.49-17.77-9.42-38.4-10.58-58-11.93-32.61-2.23-16.59-17.32-28.93-42.86,66.09-21.72,138.84-27.91,208.08-28.66,48.07-.5,104-1,142.63-34,31.1-26.61,38.6-68.14,33.44-107.15a261.94,261.94,0,0,0-11.21-47.43c7.07-11.74,12.86-24.17,15.74-37.65,6.3-29.53-3.91-55.29-18.45-80.44C1822,1237.58,1799.47,1211.21,1764.09,1205.69Z"/><path class="cls-2" d="M1825.08,1253.93c-16.39-29.69-39-56.06-74.34-61.58-26.83-4.18-27-2.75-47.13-22.83-12.38-12.34-25.57-24.16-40.37-33.56-85.38-54.23-140.44,41.15-186.2,99.27-27.14,34.47-54.41,69-84,101.39a633.77,633.77,0,0,1-47.28,47c-18.74,16.59-49.15,10.32-73.92,18.4-64.08,20.91-144,64.14-128.65,143.62,10.5,54.22,34.58,141.34,99.48,146.5,24.28,1.93,44.22,44.48,62.12,62.4,30.16,30.2,66.4,57.48,107.77,69.85,76.81,23,154.65-33.85,163.32-113.79,3-27.43-9.44-53.45-34.05-66.49-17.77-9.42-38.4-10.58-58-11.93-32.61-2.23-16.59-17.32-28.93-42.86,66.09-21.72,138.84-27.91,208.08-28.66,48.07-.5,104-1,142.63-34,31.1-26.61,38.6-68.14,33.44-107.15a261.87,261.87,0,0,0-11.21-47.43c7.07-11.74,12.86-24.17,15.75-37.65C1849.83,1304.83,1839.61,1279.08,1825.08,1253.93Z"/><path class="cls-6" d="M1806.48,1316.38c.76-15.16-8.05-30.26-15.32-42.84-8.71-15.07-16.16-28.9-31.73-37.59-15.28-8.53-34.84-5.75-51.08-2a382.3,382.3,0,0,0-41.78-45.67c-16.88-15.54-46-38.87-70.76-27.6-14.79,6.74-26,22.4-36.23,34.39-20.83,24.42-40.28,50.06-60.26,75.18C1451.81,1330,1402.54,1391.91,1341,1438c-19.8-12.45-50.26-1.28-69.48,5.54-30.92,10.95-71.56,31.5-88,61.7-10.8,19.86,5.22,57.63,11.28,76.4,4.6,14.24,10.58,35.39,20.57,51.07,12.94,20.31,24.94,20.93,41.89,20.48a127.23,127.23,0,0,0,19.31-2.11c31,68.68,168.34,203,236.67,106.54,18.57-26.21,44.62-75.16-4-83.45-28-4.79-52.36-1.09-80.23-13.09-5-2.17-10.37-4.79-15.71-7.67,8.08-10,10.41-21.81,9.35-35.15a33.43,33.43,0,0,0-7.89-19.34c-5.35-6.64-15.29-7.65-20.82-13.89a48.62,48.62,0,0,0,5.66-15.91c70.74-33.48,150.42-41.47,227.59-46.65,43.86-3,103.6,3.86,143.34-18.94,44.33-25.46,34-84.71,13.85-136.35a10.84,10.84,0,0,0,.83-1.08C1795.63,1349.46,1805.47,1336.5,1806.48,1316.38Z"/><path class="cls-7" d="M1381.07,1552c-3.85-29-18.68-55.57-34-80.11-21.31-34.06-57.43-19.86-88.21-4.14-16,8.14-61.3,28-60.41,50,.91,22.69,7.9,45.77,15.75,67,3.31,9,7.84,24.72,14.68,36.61,7.36,12.76,17.74,15.5,32.17,14.46,34.55-2.53,76-24.58,99.52-41.86C1377.33,1581.57,1383.77,1572.33,1381.07,1552ZM1296,1582.72c-26.52,10.12-50.16,7.33-59.5-22.45-8.67-27.62-2-47.07,23.82-60.8,11.24-5.51,22.72-10.33,35.28-6.71,12.25,3.52,18.63,17.64,23.23,28.13C1331,1548.7,1325.28,1571.54,1296,1582.72Z"/><path class="cls-8" d="M1288.92,1574.38c-8.14,3.1-17.27,5-25.94,3.51-10.45-1.75-15-15.56-17.62-24-6.89-21.95.9-35.23,20.19-45.49,7.25-3.55,14.3-6.67,22.49-6.75,10.53-.11,16.1,12.19,19.9,20a68,68,0,0,1,7.15,28.24C1315.35,1564,1299.76,1570.23,1288.92,1574.38Z"/><path class="cls-9" d="M1501.44,1690.66c46.9,1-12.23,71.1-27.94,77.45-26,10.5-53.76-2.4-76.62-14.07-44.28-22.6-83.09-61.39-103.34-107,19.56-5.71,39.1-14.89,56.35-25.31C1381.37,1671.5,1447,1689.52,1501.44,1690.66Z"/><path class="cls-8" d="M1399.39,1608.62c8.65,4.94,8.26,16.53,4.6,25.9-3.85,9.89-8.11,8.48-14,4-10.14-7.65-19.16-16.47-25.5-26.16a213,213,0,0,0,18.46-14.42C1387.74,1602.32,1393.29,1605.14,1399.39,1608.62Z"/><path class="cls-9" d="M1710.8,1500.95c-46.18,5.78-94.35,4.32-140.18,8.87-54.44,5.38-108.93,15.16-159.68,35.7-7.28,3-10.54,2.6-12.38-6.26-5.85-28.29-23.18-58.62-38.28-79.67-4.85-6.75-5.05-10.8,1.13-15.74,76.16-60.77,131.32-141.72,193.15-216.28,9.2-11.08,16.21-11.37,25.47-5,38.91,26.79,70.5,70.83,96.23,107.83,31.34,45.06,53.59,94.23,54.52,148.24C1731.08,1495.66,1727.21,1498.91,1710.8,1500.95Z"/><path class="cls-7" d="M1740.76,1496.11c4.21-60.12-18-112.68-50.4-163.25-29.14-45.47-68.85-99.72-117.38-127,3.48-4,7-8,10.49-12,25.12-28,45.1-16.14,70.87,6.59,32.23,28.41,57.43,65.13,79.13,101.88C1759.28,1346.08,1826.7,1477.2,1740.76,1496.11Z"/><path class="cls-10" d="M1783.55,1337.41c-4,7.09-8.62,7.22-12.3-.5-8.27-17.32-16.63-32.44-22.85-43.26-6.59-11.47-13.65-22.8-21.16-33.85-4.9-7.2-6.3-11.33,3-11.73a62.14,62.14,0,0,1,16.79,1.51c15.27,3.52,22,20.67,29.19,32.68,6.42,10.72,12,21.46,13,34.12C1789.8,1324,1787.23,1330.89,1783.55,1337.41Z"/><path class="cls-11" d="M1214.17,1584.72c3.31,9,7.84,24.72,14.68,36.61,7.36,12.76,17.74,15.5,32.17,14.46,34.55-2.53,76-24.58,99.52-41.86,16.79-12.35,23.23-21.6,20.53-42a124.1,124.1,0,0,0-3.28-15.75c0,2.75,0,5.51-.16,8.26-1,22.31-15.21,33.77-33,44.56-24,14.5-54.53,28.52-82.87,30.55-29.59,2.13-36-35.64-42.66-57.18-7-22.87-14.19-46.52-6-68.1-8.73,7.17-15,15.16-14.62,23.46C1199.34,1540.44,1206.33,1563.52,1214.17,1584.72Z"/><path class="cls-11" d="M1646.54,1254.1c-16.27-15.86-38.85-35.32-62.59-41.47,43.56,28.81,79.5,78.24,106.41,120.23,32.4,50.57,54.61,103.13,50.4,163.25a67.89,67.89,0,0,0,12.59-4.09c2.13-55.67-16-108.34-45.63-156.89C1690,1306.11,1671,1277.91,1646.54,1254.1Z"/><path class="cls-12" d="M1276.88,1464.41c15.36-3.73,32-6.74,47.53-2.34,12,3.43,21.7,11.47,29.88,21.68-2.38-4-4.79-8-7.23-11.9-21.31-34.06-57.43-19.86-88.21-4.14-2.86,1.46-6.69,3.31-11,5.47C1257.33,1469.85,1267,1466.82,1276.88,1464.41Z"/><path class="cls-12" d="M1733.47,1302.37c-21.7-36.75-46.89-73.47-79.13-101.88-21.39-18.87-38.8-30.17-58.46-17.47,52,1.21,93.92,65.32,119.69,105.31,20.6,32,40,63.83,51.93,100.25,8.05,24.58,11.66,49.53,12.23,74.65C1795.09,1416.19,1752.72,1335,1733.47,1302.37Z"/><path class="cls-13" d="M1783.55,1337.41c.09-.17.17-.35.26-.51a124.89,124.89,0,0,0-4.84-12.71c-11.43-25.35-30.14-49.67-53.23-66.68.45.73.94,1.48,1.49,2.29,7.51,11.05,14.57,22.39,21.16,33.85,6.22,10.82,14.58,25.94,22.85,43.26C1774.93,1344.64,1779.54,1344.5,1783.55,1337.41Z"/><path class="cls-14" d="M1398.56,1539.25c1.84,8.87,5.1,9.22,12.38,6.26,50.75-20.55,105.24-30.32,159.68-35.7,45.83-4.55,94-3.09,140.18-8.87,16.41-2,20.28-5.29,20-22.3-.93-54-23.18-103.17-54.52-148.24-13-18.76-27.61-39.32-43.86-58.54,12.59,31.45,20.89,63.46,27.4,97.71,4.61,24.34,7.34,49,6.23,73.77-.55,12.32-1.31,24.31-9.59,34.34-8.68,10.52-27.4,13.82-40.1,15.38-43.91,5.36-88.22-.51-131.44,11.1-21.39,5.74-42.65,19.09-65.1,18.79-11.61-.15-21.83-5.39-30.71-12.78A156.49,156.49,0,0,1,1398.56,1539.25Z"/><path class="cls-14" d="M1293.53,1647.08c20.26,45.58,59.06,84.38,103.34,107,22.86,11.66,50.66,24.57,76.62,14.07,8.61-3.48,30.24-26.12,40.33-46a134,134,0,0,1-29.51,20.73c-31.29,16.4-63.71,11.21-92.84-6.91-23.14-14.39-44.29-34.84-57.94-58.49-11.52-20-1.15-33.27,4.88-49.16A233.89,233.89,0,0,1,1293.53,1647.08Z"/><path class="cls-15" d="M1577.68,1252.44c-15.31-5.91-28.51,11.95-36.29,22.54C1520,1304.15,1472,1375,1417,1419c-59.92,48-7.68,37.58,6.5,32.93,25.11-8.23,50-17.16,75-25.61,28.25-9.54,58.17-16.09,85.34-28.47C1657.48,1364.31,1617.86,1268,1577.68,1252.44Z"/><path class="cls-15" d="M1467.38,1702.92a190.42,190.42,0,0,1-65.53-17.8c-18.27-8.59-30.88-21-44-34.75-8.23-8.62-8.75-3.71-7.22,5.08,4.18,24,24.58,45,43.09,58.85,24.58,18.32,54.79,23.65,82.61,10.12C1495.31,1715.18,1481.15,1704.08,1467.38,1702.92Z"/><path class="cls-16" d="M1276.9,1563.15c-13.07.73-21.16-8.21-24.73-19.8-3-9.83-.91-19.21,3-28-11.36,9.3-15.23,21.21-9.78,38.58,2.64,8.41,7.17,22.22,17.62,24,8.67,1.47,17.8-.4,25.94-3.51,10.83-4.15,26.42-10.35,26.17-24.43a61,61,0,0,0-1.57-12.12C1307.74,1552.33,1295.79,1562.11,1276.9,1563.15Z"/><path class="cls-16" d="M1382.9,1597.93a213,213,0,0,1-18.46,14.42c6.34,9.69,15.36,18.51,25.5,26.16,5.93,4.5,10.19,5.91,14-4,.33-.85.61-1.73.88-2.62-5.93,1.81-12-1.89-16.08-7.29a22,22,0,0,1-2-23.57A43.06,43.06,0,0,1,1382.9,1597.93Z"/><path class="cls-17" d="M1299.43,1529.31a50.73,50.73,0,0,0-4.57-10.27c-5.94-10.25-12.37-8-21.41-2.86-7.17,4-12.9,10.16-12.22,19,.92,11.95,11.78,14.7,21.83,12.71C1291.58,1546.18,1302.05,1539.27,1299.43,1529.31Z"/><path class="cls-6" d="M1697.33,1435.67c-2.12-6.36,7.9-9.06,10-2.75,5.89,17.67,6.84,35.95,4.79,54.37-.73,6.56-11.11,6.64-10.37,0C1703.71,1469.71,1703,1452.54,1697.33,1435.67Z"/><path class="cls-6" d="M1676.6,1488.2c2.27-10.78,3.1-22,1.15-32.95-1.16-6.53,8.83-9.33,10-2.75,2.28,12.84,1.51,25.74-1.16,38.46C1685.22,1497.5,1675.23,1494.72,1676.6,1488.2Z"/><path class="cls-6" d="M1667.2,1473.46c-.09,6.67-1.39,13.25-2.49,19.81s-11.1,3.78-10-2.75c1-5.67,2.05-11.3,2.13-17.05C1656.92,1466.78,1667.29,1466.77,1667.2,1473.46Z"/><path class="cls-5" d="M224.68,1478.53c1,.71.73.55,0,0,20.76,15.53,8.79,104.11,18.2,133.09,13.31,41,42.35,72,80.64,91.19,20.83,10.42,12.15,24.78,21.06,45.23,9.3,21.35,27.37,37.24,48.68,46.05,41.74,17.25,92,13.62,136.26,14.11,83.76.92,176.34,9.37,259.15-3.29,114.63-17.53,76.57-145,59.16-224.22-10.77-49-28.24-87.26-25-137.36,3.23-49.08.25-98.15,2.54-147.16,1.5-31.79-2.63-66.8-33.37-84.08-19.67-11.05-41.24-9.58-58.58-22.64-20.25-15.26-46.23-18.88-70.68-21.89-45.47-5.61-93.52-4.79-137.94,7.38-17.91,4.91-30.77,16.51-48.9,18.64-21.81,2.58-43.3,11.05-57.68,28.32-21.23,25.47-16.91,58.39-18,89.07-.94,27.33-2.08,54.67-1.82,82,.2,20.44,11,60.55,2.36,78-10-72-41.72-131-122.68-132.68-32-.22-67.44,12.37-72.8,48.41C201,1416,198,1458.66,224.68,1478.53Zm505.49-107.74c-18.15-10.38-42.94-11.5-50.17-30.7-6.62-17.62-20.65-31.55-37.67-39.26,29.77,3.19,58.84,13.94,87-2.94C729.86,1322.18,730.36,1346.49,730.17,1370.78Zm-159.32-69.34c-17.11,8.2-29.87,22.89-36.68,40.48-.24.61-.2.5,0,0-7,18-22.73,17.52-39.88,26.26.42-23.33,1.31-46.66,2.08-70C520.9,1311.09,545,1304.56,570.85,1301.44Z"/><path class="cls-5" d="M730.17,1370.78c0-4.12-14.24-8.14,0,0Z"/><path class="cls-5" d="M537,1334.49Z"/><path class="cls-5" d="M224.68,1478.53h0C213.94,1470.51,222.23,1476.71,224.68,1478.53Z"/><path class="cls-5" d="M534.16,1341.93h0l2.88-7.44Z"/><path class="cls-2" d="M211.33,1465.18c20.77,15.52,8.79,104.11,18.2,133.09,13.31,41,42.35,72,80.64,91.19,20.83,10.42,12.15,24.78,21.06,45.23,9.3,21.35,27.37,37.24,48.68,46.05,41.74,17.25,92,13.62,136.26,14.11,83.76.92,176.34,9.37,259.15-3.29,114.63-17.53,76.57-145,59.16-224.22-10.77-49-28.24-87.26-25-137.36,3.22-49.08.25-98.15,2.54-147.16,1.5-31.79-2.63-66.8-33.37-84.08-19.67-11.05-41.24-9.58-58.58-22.64-20.25-15.26-46.23-18.88-70.68-21.89-45.47-5.61-93.52-4.79-137.94,7.38-17.91,4.91-30.77,16.51-48.9,18.64-21.81,2.58-43.3,11.05-57.68,28.32-21.23,25.47-16.91,58.39-18,89.07-.94,27.33-2.08,54.67-1.82,82,.2,20.44,11,60.55,2.36,78-10-72-41.72-131-122.68-132.68-32-.22-67.44,12.37-72.8,48.41-4.35,29.26-7.32,71.9,19.31,91.77Zm505.49-107.74c-18.15-10.38-42.94-11.5-50.17-30.7C660,1309.13,646,1295.2,629,1287.49c29.77,3.19,58.84,13.94,87-2.94.53,24.29,1,48.6.84,72.9C702.58,1349.3,716.86,1353.33,716.82,1357.44Zm-196-28.86c-7,18-22.73,17.52-39.89,26.27.42-23.33,1.31-46.66,2.08-70,24.54,12.89,48.64,6.35,74.49,3.23-17.11,8.2-29.87,22.89-36.68,40.48Z"/><path class="cls-6" d="M816.91,1703.94c-6.69-53.79-14.43-107.33-28.33-159.82-5.22-19.69-11.68-41.21-20.24-62-.83-2-1.37-14.25-1.06-17.17,6-57.5,6.44-114.86,5.34-172.67-.33-17,5.83-48.68-13.11-59.33-16.22-9.12-34.5-10.2-52.72-10.23-1.8-11.57-14.63-20.95-32.22-24.63-46.37-9.71-99.61-11-146.13-.29-13.83,3.17-30.33,8.75-36.05,20.5-15.48-.14-33.93-.23-47.35,7.32-23.59,13.25-17.83,38.48-18.57,62.54-1.78,57.16-5.55,114.67,4.48,171.25-12.45,21.93-22.14,45.68-30.32,67.78-51.1-6.2-47.51-41.34-54.91-83.72-2.64-15.14-5.9-29.52-12-41.78-12.15-24.49-39.87-36.84-69.76-37.47-19.65-.42-38.29,4.69-32.21,24.62.88,2.9,4.08,6,7.36,8.61,5.81,4.71,7.81,4.25.85,9.74-1.21,1-2.5,2-3.73,3-9.26,7.48-11,16.58-1.48,23.66,11.94,8.92,21.69,17.29,23.29,30.47,2.74,47.1-5.9,90.51,13.74,135,16.91,38.32,55.11,58.92,93.74,69.21q-1.22,9.35-2.17,18.72c-5.78,57.68,43.65,65.25,91.32,67,78.44,2.91,157.15,1.36,235.6-.33,42.18-.9,128.09,13.8,126.63-47.9A8.77,8.77,0,0,0,816.91,1703.94Zm-65.32-256.09c-11.76-20.12-26.33-37.95-44.84-50.55-22-15-49.23-24.17-77.81-28,4.05-12.34,5-26.6-3.86-37.09-9.25-10.89-24.92-14.47-38.69-12.36-14.09,2.15-23.89,9.6-29,22.85-3.15,8.13-3,18.91-.09,28.09-25,4.31-48.73,12.51-68.56,24.5-17.33,10.47-31.64,25.17-43.74,42-3.9-31.67-3.74-63.51-2.93-95.54.66-26.16,1.69-52.33,2.45-78.48.82-28.32,25.72-28.21,45.73-27.83.78,14.24,21.12,20.73,34.64,18.07,48-9,91.5-9.45,138.68-.48,12,2.28,19.56,4.11,30.89-1.37,5.45-2.63,8.2-6.8,10-11.75,20.49-.26,49.67-2.82,50.4,27.72.62,25.75,1.1,51.51,1.23,77.27C756.19,1379.36,754.65,1413.63,751.59,1447.85Z"/><path class="cls-9" d="M799.63,1703.94c2.1,38.66-50.9,31.15-76.62,31.88-26.32.76-52.63,1.26-79,1.69-60.47,1-121,1.34-181.46-.3-25.71-.7-71.28,3.33-82-26.56-3.92-10.94-.48-14.8,7-12.17,15.64,5.44,34.71,6.94,47.3,8.81,46.28,6.92,93.36,9,140.1,9.68,49.7.77,99.68-.7,149.06-6.55,19.61-2.32,43.4-4.4,63.22-12.41C798.59,1693.5,798.58,1695.52,799.63,1703.94Z"/><path class="cls-9" d="M518.83,1218.1c49.24-14.45,110.77-13.19,160.44-1.34,3.65,1.22,10.54,5.46,10.68,9.57.26,8-4.3,13.21-12.72,11.9-53.58-11.43-103.08-11.51-157-1.36C503.28,1240.24,502,1224.7,518.83,1218.1Z"/><path class="cls-18" d="M595.44,1384c36,.07,72.39,9.14,100,27.68,8.52,5.73,5.69,9-2.71,14.15-31.21,19.07-74.7,22-109,21.74-29.32-.22-64.4-4.25-91.36-19.3-6.32-3.52-10.47-6.07-1.24-13.19a127.16,127.16,0,0,1,11.68-8C534.25,1388,576.13,1383.9,595.44,1384Z"/><path class="cls-19" d="M572.74,1358.93a56.39,56.39,0,0,1,1.28-11.61c1.65-7.85,11-10.2,17.69-10.7,8.08-.62,17.09,1.65,21.47,8.88,2.44,4,2.2,9,1,13.78-1.88,7.58-4.71,8.17-12.7,8.07-6-.08-12.07.08-18.09.46C575.14,1368.33,572.8,1366.48,572.74,1358.93Z"/><path class="cls-7" d="M420.64,1522.78c15.9-42.63,34-72.38,54.46-93.5,30.33,22.52,71.94,27.46,108.56,28.61,41.34,1.3,95.1-4.77,127.94-33.14,20.65,20,36.36,45.68,48.73,78.15,16.27,42.72,26.75,97.12,35,165.5,1.17,9.73.49,14.89-10.53,19.7-21.26,9.3-49.52,10.76-70,13-44.46,4.94-89.42,5.9-134.12,5.55-43.83-.35-87.76-2.55-131.29-7.8-14.4-1.74-40.81-2.86-59.35-10.22-8.83-3.5-9.43-9.1-7.52-20.25C393.29,1606,400.78,1576,420.64,1522.78Z"/><path class="cls-19" d="M261.71,1400.92c-1.4-6.37-2.55-7.84-7-12.7-9.42-10.33,12.28-5.76,19.67-5.32,25.23,1.5,40.65,13.13,48.36,36.78,9,27.58,5.8,57.12,14.47,84.47,7.21,22.75,26.42,33.21,47.55,37.89,9.24,2.05,10.39,0,6.41,12.27a641.28,641.28,0,0,0-21.09,84.64c-2,10.95-3.75,12.12-13.5,8.76-29.77-10.24-54.35-27.33-69.91-57.14-20.21-38.74-9-84.89-11.38-126.31-1.31-10.82-2.83-25-12.8-31.77-12.65-8.57-14.15-12.31-9.49-17.43C258.07,1409.54,262.9,1406.35,261.71,1400.92Z"/><path class="cls-20" d="M253.2,1425a53.7,53.7,0,0,0,9.34,7.49c10,6.76,11.48,20.95,12.8,31.77,2.41,41.42-8.83,87.57,11.38,126.31,15.55,29.8,40.13,46.89,69.91,57.14,9.75,3.36,11.54,2.19,13.5-8.76q3.67-20.59,8.7-40.91a102.37,102.37,0,0,1-13.6,12c-35.28,25.51-66.77-12.62-73.81-45.18-6.84-31.62,2.08-64.29-2.31-96.22C286.55,1450,273.83,1426.24,253.2,1425Z"/><path class="cls-20" d="M583.4,1367.81c6-.38,12.07-.54,18.09-.46,8,.09,10.82-.49,12.7-8.07a20.89,20.89,0,0,0,.22-10.91,18.32,18.32,0,0,1-12.85,11.8c-7,1.85-15.66-1.43-21-5.88a13,13,0,0,1-4.71-10.91,10.13,10.13,0,0,0-1.83,3.93,56.39,56.39,0,0,0-1.28,11.61C572.8,1366.48,575.14,1368.33,583.4,1367.81Z"/><path class="cls-21" d="M599.32,1341.11c-3.1-1-7-1.36-10,.12-3.67,1.81-4.79,5.43-1.28,8s9.44,3.29,13.67,2.66C606.68,1351.13,612.18,1345.31,599.32,1341.11Z"/><path class="cls-21" d="M309.06,1403.65c8.55,12.36,10.18,30.74,11.89,45.16,2.76,23.28,3.87,46.66,14.22,68.12,10.27,21.3,32.58,31.65,56.51,35.95,3.34-10.5,1.95-8.87-6.87-10.83-21.13-4.68-40.34-15.15-47.55-37.89-8.67-27.35-5.47-56.89-14.47-84.47-7-21.56-20.56-33-42-36C292,1387.45,302.16,1393.68,309.06,1403.65Z"/><path class="cls-11" d="M390.09,1688.65c18.53,7.36,44.95,8.48,59.35,10.22,43.53,5.25,87.46,7.45,131.29,7.8,44.7.35,89.65-.61,134.12-5.55,20.45-2.27,48.71-3.72,70-13,11-4.81,11.7-10,10.53-19.7-3.71-30.64-7.9-58.31-12.81-83.55a145.88,145.88,0,0,1-4.52,31c-8.66,32.64-27.65,56.17-60.73,65.16-32.8,8.9-70.56,10.41-104.48,10.92-35.84.54-73.29-4.62-108.47-11-46-8.4-79.08-32.37-82.79-80.72-4-52.37,14.75-100.21,34.46-147.43-12.83,18.37-24.61,41.22-35.37,70.08-19.86,53.25-27.35,83.2-38.06,145.62C380.66,1679.55,381.26,1685.15,390.09,1688.65Z"/><path class="cls-12" d="M465.93,1559.93c8.75,15.17,28.94,22.7,44.53,28,50.48,17.2,111,19.44,162.79,7.51,17.25-4,38.54-11.07,49.35-26.2,15.09-21.12,8-62.6-3-84.13-9-17.67-27.44-17-45.59-13.12-10.24,2.17-20.4,5.35-28.74,6.79-44.38,7.72-85.07,5.78-132.9-9.56-22.53-7.22-35.68,2.13-43.23,17.89C458.11,1510.16,453.27,1538,465.93,1559.93Z"/><path class="cls-22" d="M502.73,1407a127.16,127.16,0,0,0-11.68,8c-9.22,7.12-5.08,9.66,1.24,13.19,27,15,62,19.07,91.36,19.3,34.34.26,77.83-2.67,109-21.74.9-.55,1.7-1.07,2.47-1.58-25.45,9.52-54.38,12.92-79.8,14.62a252.24,252.24,0,0,1-62.15-3.07,111.22,111.22,0,0,1-26.12-8.17c-16.89-7.68-13.82-20.49-5.11-30A131,131,0,0,0,502.73,1407Z"/><path class="cls-23" d="M644.35,1398.24c-15.83-5.42-33.55-6.25-49.84-5.82-14,.37-48.79.74-56.94,14.66-6.59,11.26,42.11,12.71,45.08,12.84,20.58.84,42.19.89,62-5.1C664.73,1408.76,665,1405.31,644.35,1398.24Z"/><path class="cls-14" d="M380.64,1710.65c10.69,29.9,56.26,25.86,82,26.56,60.46,1.63,121,1.27,181.46.3,26.32-.43,52.64-.93,79-1.69,21.68-.62,62.63,4.51,73.73-17a93.89,93.89,0,0,1-13.83,6.21c-16.06,5.53-33.48,5.72-50.27,5.75-38,0-76.09,1.49-114.13,1.65-42.77.17-85.54-.12-128.29-1.2-37.2-.93-83.74,3.52-110.74-24.54A33.06,33.06,0,0,0,380.64,1710.65Z"/><path class="cls-14" d="M520.26,1236.88c53.88-10.15,103.37-10.07,157,1.36,7.48,1.16,11.89-2.82,12.61-9.33-7.63,2.35-16.81,1.1-25.4-.3a352.12,352.12,0,0,0-46.46-4.93c-17.64-.55-35.49.61-53.09,1.66-8.85.53-17.64,1.54-26.42,2.71-3,.41-26.14,4.78-29.46-3C503.95,1231.87,508,1239.3,520.26,1236.88Z"/><path class="cls-6" d="M710.48,1667.05c21.65,4,45.36,1.82,65.21-8,6-3,11.23,6,5.24,9-22.52,11.11-48.65,13.61-73.2,9C701.16,1675.83,703.95,1665.84,710.48,1667.05Z"/><path class="cls-6" d="M732.89,1642.66a87.42,87.42,0,0,0,38.63-6.32c6.22-2.47,8.89,7.56,2.75,10a94.51,94.51,0,0,1-41.39,6.68C726.26,1652.58,726.22,1642.21,732.89,1642.66Z"/><path class="cls-6" d="M742.33,1620.13c6.89-1,14-1.87,20.39-4.88,6-2.85,11.27,6.09,5.24,9-7.29,3.46-15,4.8-22.87,5.94C738.55,1631.07,735.73,1621.08,742.33,1620.13Z"/><path class="cls-5" d="M758.68,335.46c34.43,2.88-12.47-1.05,0,0Z"/><path class="cls-5" d="M710.45,301.09c-11.58-20.34-32.27-31.48-54.24-37.54-36.52-10.07-74.41-4.58-111.68-6.11-44.28-1.85-104.88-9-142.25,21.29A68.09,68.09,0,0,0,384.59,301c-11.8-3.77-24.07-4-36.31-3.46-7.79.35-15.57-.28-23.36.09-47.08,2.28-55.54,42.75-77.81,73.92-22.44,31.4-26.82,72-30.12,109.3-7.23,78.2-17.1,206.85,46,267.47,57,54.78,171.65,44.13,243.55,44.77,81.27.74,182.59,9.8,261-16.09,98.21-32.41,92.76-159.18,90.45-243.43-1.63-77.78,2.08-189.67-99.33-198.16q-18.73-1.58-37.47-2.9C719.28,321.61,716,310.8,710.45,301.09Z"/><path class="cls-2" d="M745.34,322.12q-18.73-1.58-37.47-2.9c-1.93-10.95-5.24-21.76-10.76-31.46-11.58-20.34-32.27-31.48-54.24-37.54-36.52-10.07-74.41-4.58-111.68-6.11-44.28-1.85-104.88-9-142.25,21.29a68.09,68.09,0,0,0-17.69,22.31c-11.8-3.77-24.07-4-36.31-3.46-7.79.35-15.57-.28-23.36.09-47.08,2.28-55.54,42.75-77.81,73.92-22.44,31.4-26.82,72-30.12,109.3-7.23,78.2-17.1,206.85,46,267.47,57,54.78,171.65,44.13,243.55,44.77,81.27.74,182.59,9.8,261-16.09,98.21-32.41,92.76-159.18,90.45-243.43-1.63-77.78,2.08-189.67-99.33-198.16C732.87,321.07,779.76,325,745.34,322.12Z"/><path class="cls-6" d="M742.08,361.16q-35.15-2.94-70.62-5.06c-.54-20.64-.41-49.23-19.38-60.08-31.92-18.28-76.26-11.57-111.75-12.41-37.92-.9-86.7-7.14-121.77,9.15-18.62,8.65-20.33,40.89-21.09,61.46q-11.3.59-22.58,1.28c-.07-7.79-1.28-15.54-5.11-22.48-7-12.58-26.56-9.64-38.38-9.45-11.48.2-26.8-2.21-35.9,5.91-8.58,7.65-6.32,24-6.46,34.14-39.8,12.47-43.71,78.44-46.81,112.39-6,66-5.94,140.69,17.36,203.69,20.54,55.52,88.55,53.74,137.47,57.19,76.89,5.43,154.46,4.51,231.39.58,42.65-2.19,130.14,4.55,154.49-42,28.08-53.7,23.63-128.92,22.21-187.52-.76-31.28,2.21-86.75-17.14-120.62C776.15,366.57,766.76,363.22,742.08,361.16Z"/><path class="cls-18" d="M415.56,341.22c1.79-19.52,7.38-35.73,32.45-38.59,30.31-3.47,61.85-2.33,92.31-1.74,23,.43,46,.81,68.94,1.4,14.39.38,35.95,2.94,40.79,19.38a100.44,100.44,0,0,1,3.42,21c.86,12.14-3.68,12.26-14.57,11.72-70-3.37-140.46-4.16-210.46-1.54C416.66,353.25,414.72,350.46,415.56,341.22Z"/><path class="cls-8" d="M306.36,350.41a46.77,46.77,0,0,1,.66-6c.92-5.16,19.15-3.4,24.37-3.56,5.62-.16,22.5-2.28,24.67,3.27a22.71,22.71,0,0,1,1.29,5.12c1,7.18-1.59,7.51-9.8,8.15q-15.74,1.21-31.4,2.67C305.8,361,305.85,360.44,306.36,350.41Z"/><path class="cls-9" d="M781.12,641.8c-6.53,41-24.51,65.51-66.73,71.12-65.43,8.71-132.15,10-198.07,10.22-65.32.2-132.29-.7-196.74-12.38C249.2,698,256.41,571.42,257.26,518.91c.3-18.29.42-21,15.1-23.24,32.31-5,63.53-8.35,96.15-6.3,9.73.62,10.78,2.35,8.4,11.82-6.44,25.77-7.25,54.29-2,83.68,17.2,73.26,80.44,113.57,153.55,113.64,80.39.08,140.19-59.14,146.7-139.33a169.65,169.65,0,0,0-3.87-52.62c-1.86-7.9-.9-11.85,6.33-13a333.46,333.46,0,0,1,93.29-1.89c16.5,2,16.74,5.53,17,17.71q.38,16.66.33,33.32C788.21,575.82,786.32,609.08,781.12,641.8Z"/><path class="cls-10" d="M526.53,406.85c-44.19,1.59-95,14.62-118,56.53-19.88,36.22-24.16,76.53-17,116.9,14.43,61.44,67.09,100.89,130.15,101,66.83.05,117.94-35.26,132.59-103.13C672.6,493.33,618.07,403.53,526.53,406.85ZM627.22,553.21c-4.94,98.38-124.81,122-180.67,63.88-24.87-25.92-33.8-63.5-21.8-106,11.52-40.82,43.68-71,94.83-72.33C585.4,437,630.55,486.9,627.22,553.21Z"/><path class="cls-19" d="M605.36,573.67c-22.67,84.36-146.93,73.09-166.73-6.33-10.53-64,24-109.81,89.72-111.56C590.69,454.12,619.88,519.64,605.36,573.67Z"/><path class="cls-7" d="M784.08,446.36c-1.3-12.27-2.42-30-7.93-44.48-8-21-18.85-22.22-40.55-24-134.45-10.85-272.17-12.47-406.34-1.69-19.82,1.59-39-.43-50.61,18.84a100.46,100.46,0,0,0-12.71,33.64,465.9,465.9,0,0,0-7.31,58.7c42.17-6.92,82-12.09,124.95-7.12,20.47-51.55,66.37-88,134-90.4,38.93-1.42,76.9,3.87,105.89,32.66a177.63,177.63,0,0,1,41.27,62.71c41.35-7.48,80.7-8.37,122.11-1.7C786.24,471.14,785.4,458.72,784.08,446.36Zm-31.76-5.27c-1.81,6.59-12,11.55-18.16,12.9-13.48,3-27.57,2.19-41.14.19-8.11-1.2-17.72-2-22.77-9.53-5.54-8.25-5.58-23-4-32.51,1.28-7.8,6.3-12.24,13.37-14.6a9.2,9.2,0,0,1,2-.62c13.22-2.56,26.06-4.86,39.54-3.31,9.73,1.12,21.6,1.43,27.62,10.21C755.34,413.46,755.34,430.14,752.32,441.09Z"/><path class="cls-8" d="M686.17,413.58c12.24-2.38,23.87-4.31,36.3-2.45,2.81.47,5.62,1,8.42,1.57,6.8,1.32,5.16,6.64,5.06,11.89-.13,7.15,1.61,8.76-3.94,11.8-10.22,5.59-28.3,2-39.1.43-5.79-.85-9.21-1-9.33-8C683.51,424.92,680.83,415,686.17,413.58Z"/><path class="cls-20" d="M438.63,567.34c19.8,79.42,144.06,90.7,166.73,6.33a109.6,109.6,0,0,0,2.71-42.42,96.87,96.87,0,0,1-7.49,28.43c-15,34.42-56.44,50.67-91.82,45.65-37.47-5.32-59.25-37.42-59.42-73.38-.1-21.21,7.55-41.24,20.06-57.71C443.43,493.62,432,526.82,438.63,567.34Z"/><path class="cls-21" d="M479.27,501.23a37.29,37.29,0,0,0-1.17,28.14c9.33,25.31,45.42,32,68,26.74,36.16-8.4,45.16-37.42,31-58.53C556.21,466.35,495.28,464.67,479.27,501.23Z"/><path class="cls-11" d="M258.63,487.42c42.17-6.92,82-12.09,124.95-7.12,20.47-51.55,66.37-88,134-90.4,38.93-1.42,76.9,3.87,105.89,32.66a177.63,177.63,0,0,1,41.27,62.71c41.35-7.48,80.7-8.37,122.11-1.7-.19-3.64-.45-7.28-.67-10.91-20-2.23-40.34-2.28-58.93-2.09a449.85,449.85,0,0,0-57.79,4.37c-13.2-28.63-34-57.83-60.64-74.59-24.39-15.33-55.77-19-83.94-18.74-63.45.5-119.63,30.74-145.18,87.38-40.61-3.64-81.85-1.12-120.44,10C259.07,481.82,258.82,484.61,258.63,487.42Z"/><path class="cls-12" d="M268.84,417.32c5.45-9.7,12.42-18.41,22.42-25.07,26.11-17.4,64.52-13,94.33-14,40.39-1.3,80.72-2.82,121.14-3.09,67.48-.46,135,1.35,202.33,6.29,16.38,1.2,32.58,2,48.45,6.66A63.76,63.76,0,0,1,773.07,395c-7.74-14.44-18.42-15.59-37.46-17.12-134.45-10.85-272.17-12.47-406.34-1.69-19.82,1.59-39-.43-50.61,18.84A97.46,97.46,0,0,0,268.84,417.32Z"/><path class="cls-13" d="M521.71,681.23c66.83.05,117.94-35.26,132.59-103.13,8.46-39.21,1.32-79.48-17.83-111.12A217,217,0,0,1,644,492.33c6.34,27.36,5.6,57.11-.8,84.34-13.26,56.4-59.89,84.63-115.11,88.22-52.28,3.4-102.1-21.34-121.63-71.41a172,172,0,0,1-.32-125.13c-17.64,34.92-21.4,73.38-14.53,111.91C406,641.72,458.65,681.16,521.71,681.23Z"/><path class="cls-24" d="M416.52,451.45c28.32-21.52,64.62-32,101.22-33.32a183.58,183.58,0,0,1,101.79,26.51c-22.73-24.15-54.59-39.19-93-37.79C486.87,408.28,442,419,416.52,451.45Z"/><path class="cls-22" d="M428.44,352.81c70-2.62,140.5-1.84,210.46,1.54,10.89.54,15.44.42,14.57-11.72-.24-3.23-.57-6.44-1-9.62-1,5.44-3.74,10-10.45,12.32-7.86,2.7-17.76,1.52-26,1.55-22.68.08-45.35-.64-68-1.15-28.52-.63-57-1.07-85.56-.73-9.62.11-19.28.77-28.9.27-10.53-.55-15-6.3-16.63-13.76a95.59,95.59,0,0,0-1.35,9.69C414.72,350.46,416.66,353.25,428.44,352.81Z"/><path class="cls-14" d="M787.93,509.41c-.29-12.17-.53-15.73-17-17.71-4.66-.57-9.29-1-13.9-1.36a44.84,44.84,0,0,1,16.09,20.88c5.1,13.48,1.62,32.68.8,46.57-2.09,35.51-4.35,73.89-15.47,107.95-9.21,28.16-48.72,30.71-73.11,35.61-38,7.63-77.15,9.94-115.81,11.1-75.21,2.24-152.41-1-226-17.78-48.42-11.05-64.8-50.73-70.55-95.76-3.91-30.64-9.79-75.85,8.15-104.54-2.92.43-5.85.85-8.79,1.31-14.67,2.28-14.79,5-15.1,23.24-.85,52.51-8.06,179.11,62.33,191.85C384,722.44,451,723.34,516.32,723.14c65.92-.2,132.64-1.51,198.07-10.22,42.22-5.61,60.2-30.09,66.73-71.12,5.2-32.72,7.09-66,7.14-99.08Q788.29,526.08,787.93,509.41Z"/><path class="cls-16" d="M683.14,424.42c.2,1.73.42,3.33.44,4.44.13,7,3.55,7.11,9.33,8,10.8,1.59,28.87,5.16,39.1-.43,5.42-3,3.9-4.6,3.95-11.34-6.28,3.93-13.61,5.78-22.17,6.28C704.06,431.87,690.6,431.64,683.14,424.42Z"/><path class="cls-16" d="M306.31,351.57c-.44,8.81-.06,9.44,9.84,8.49q15.67-1.46,31.4-2.67c8.22-.65,10.81-1,9.8-8.15,0-.35-.2-.68-.25-1a169.11,169.11,0,0,1-20.81,3.66C327,352.83,315.63,354.66,306.31,351.57Z"/><path class="cls-6" d="M315.7,689.14c-15.28-3.59-25.23-17.16-27-32.29-.77-6.64,9.6-6.56,10.37,0,1.24,10.64,8.91,19.83,19.38,22.28C325,680.67,322.2,690.66,315.7,689.14Z"/><path class="cls-6" d="M320.93,670.21c-14-7.15-22.14-21.77-22.65-37.29-.22-6.7,10.15-6.67,10.37,0,.39,12,6.69,22.83,17.51,28.35C332.12,664.3,326.87,673.24,320.93,670.21Z"/><path class="cls-6" d="M463.29,320.85c45,.32,90,.36,135,.36,11.14,0,11.14,17.28,0,17.28-45,0-90,0-135-.36C452.15,338,452.14,320.77,463.29,320.85Z"/><path class="cls-5" d="M1222,459.18c1.22,17.89,26.64,60.2,56,72.47,10.1,4.24,21.19,6.66,32.18,6,16.22,9.76,33.73,17.28,51.34,24.13,20,29.68,58.14,34.07,84.69,56.2,32.93,27.44,64.47,56.5,95.57,86,29.74,28.21,59.09,56.84,88.93,85,24.86,23.43,50.34,55,87.61,55,48.67,0,115.7-62.66,111.62-113.36-2.06-25.63-20.9-42.56-37.9-59.54-28.85-28.81-57.87-57.42-86.42-86.51-55.51-56.57-104.79-114-148-179.27-19.36-29.24-38.68-49-44.07-86.31-4.85-33.56-33-60.9-65.46-68.35-28.52-6.55-30.15-56.26-75.57-41.17-28.58,9.5-70.72-16.21-86.38,29.91-43.86-31.18-97.91,27.31-64.71,68.95-46.91,15.13-18.36,55.53-32.31,80.77C1173.46,417.4,1190.67,452.94,1222,459.18Z"/><path class="cls-2" d="M1264.65,518.3c10.1,4.24,21.19,6.66,32.18,6,16.22,9.76,33.73,17.28,51.34,24.13,20,29.69,58.14,34.07,84.69,56.2,32.93,27.44,64.47,56.5,95.57,86,29.74,28.21,59.09,56.84,88.93,85,24.87,23.43,50.34,55,87.61,55,48.67,0,115.7-62.66,111.62-113.36-2.06-25.63-20.9-42.56-37.9-59.54-28.85-28.81-57.87-57.42-86.42-86.51-55.51-56.57-104.79-114-148-179.27-19.36-29.24-38.68-49-44.07-86.31-4.85-33.56-33-60.9-65.46-68.35-28.52-6.55-30.15-56.26-75.57-41.17-28.58,9.5-70.72-16.21-86.38,29.91-43.86-31.18-97.91,27.31-64.71,68.95-46.91,15.13-18.36,55.53-32.32,80.77-15.65,28.28,1.57,63.82,32.94,70.06C1209.92,463.72,1235.34,506,1264.65,518.3Z"/><path class="cls-6" d="M1287.34,391.65c-9.29,8.48-18.62,16.93-28.18,25.17-16.8,15.4-14,36.19.9,51.75,10.18,10.68,30.26,22.23,44.73,13.76,20.24,16.55,60.42,30.71,71.51,34.89a34.74,34.74,0,0,0,9.28,15.23c8.47,8.25,20.21,12.32,31,9.18,95.21,72.19,176.65,160,264.92,240.05,25,21.91,49.16,2.94,68.71-16.64,8.91-8.92,21.47-20.84,25.73-33.83,5.09-15.54-2.77-23.51-13-33.79-84.33-84.59-170.33-166.16-242.29-262.12a9.48,9.48,0,0,0-1.94-1.89c-.7-9.35-5.24-18.65-11.5-25.42a28.72,28.72,0,0,0-14.36-8.6.76.76,0,0,1,0-.09c-9.93-23.61-17.43-50.47-34.32-70.2,16.74-33.81-36.73-73.92-64.94-44.69-7.62,8.49-15.4,16.78-23.17,25.08-23-9.83-44.89,1.51-63.36,17C1278.21,350.78,1284.42,382.57,1287.34,391.65Z"/><path class="cls-8" d="M1488.83,416.06c2.94.51,5.22,3.14,7.14,5.21,4.29,4.63,7.66,14.08,4.35,20-22,33.35-52.17,58.69-84.43,81.74-6,4.22-11.39,2.9-17.1-1.84-3.65-3-8.48-8.77-5.22-12,30.5-27.71,59.47-56.85,87.22-87.33C1482.7,419.71,1485.53,415.48,1488.83,416.06Z"/><path class="cls-18" d="M1453.39,351.27c8,13,13.34,28.36,18.83,42.68,3.11,8.17,2.91,8.46-3.64,15.63-26.28,28.86-53.65,56.53-82.39,82.92-5.27,4.85-8.12,7-15,4.24-14.94-6-30.46-11.89-44.29-20.16-6.45-3.86-5.82-6.41.59-11.55,40.89-32.79,77.76-71,111.56-111C1446.79,344.89,1448.42,343.22,1453.39,351.27Z"/><path class="cls-9" d="M1405.78,296.62c16.12-16.7,48,9.89,34.85,28.64-42.08,51.68-89,101.82-143,141.19-7.05,5-18.57-3.87-23.94-8.69-9.72-8.71-12.59-19.34-2.35-28.72A1474.68,1474.68,0,0,0,1405.78,296.62Z"/><path class="cls-10" d="M1349.3,323.26c7.57-.71,7,1.23,1.42,7q-19.32,19.9-39.39,39c-7.38,7-9.32,5.7-8.83-.42A39.71,39.71,0,0,1,1312.79,345C1321.74,334.74,1335.39,324.59,1349.3,323.26Z"/><path class="cls-7" d="M1752.36,711.28c-80.67-81-162.51-159.4-232.91-249.61-3.9-5-6.5-8.06-13.3.95-18.61,24.54-41.26,45-65.76,63.59-7.54,5.75-5.92,7.64,1.17,13.23,89.53,70.52,167.85,153.58,252.17,230,17.31,15.16,35.69-7.9,47.37-19.78,3.34-3.4,8.36-7.71,12.33-12.5C1762.11,726.72,1759.6,718.55,1752.36,711.28Zm-175-136.78c-6.9,7-18.79,25.82-30.43,21.8-6-2.05-11.81-10.69-16.09-15-8.09-8.11-16.14-16.25-24.27-24.32-13.63-13.57-11.27-16.9-1.51-28.35,5.9-6.92,13.07-14.31,21.06-13.27,7.36,1,13.45,9.85,18.29,14.74,9.15,9.21,18.21,18.51,27.34,27.74C1575.62,561.73,1583.26,568.57,1577.41,574.5Z"/><path class="cls-19" d="M1514.76,534c9.68-9.91,12.49-6.49,18.11-.85,2.23,2.24,4.45,4.51,6.67,6.75q9,9.09,18,18.25c5.21,5.29,12.35,9.19,6.06,15.65q-2.82,2.89-5.66,5.75c-5.53,5.56-9.12,5-14.6-.43q-4.79-4.78-9.56-9.58c-3.58-3.59-12.92-10.68-19.43-17.61C1507.39,544.49,1507.78,541.15,1514.76,534Z"/><path class="cls-20" d="M1514.33,551.9c6.51,6.94,15.85,14,19.43,17.61q4.78,4.8,9.56,9.58c5.49,5.47,9.08,6,14.6.43,1.5-1.51,3-3,4.49-4.56a21.62,21.62,0,0,1-10.43.19c-6.76-1.5-13.07-9.27-18.33-13.74-8.13-6.91-19.48-16.1-19.33-27C1507.82,541.27,1507.56,544.65,1514.33,551.9Z"/><path class="cls-11" d="M1672.9,734.14c-32.42-32.45-68.57-60.89-101.34-93.07-33.27-32.68-75.21-62.58-101.26-101.67-14.54-21.81,18.37-43.9,28.41-67.83-17.12,20.54-36.92,38.36-58.31,54.63-7.54,5.75-5.92,7.64,1.17,13.23,89.53,70.52,167.85,153.58,252.17,230,14.81,13,30.41-2.05,41.93-14.11C1709.2,769.2,1691.34,752.6,1672.9,734.14Z"/><path class="cls-12" d="M1611.4,589.69c-7.32-6.29-20.91-5.71-29.46,6.2-10.92,15.27-3.89,25.88,13.65,41.47,13.39,11.89,26.27,24.35,39.52,36.39,24.11,21.92,49,43.06,74.11,63.8,8,6.63,16.58,1.95,21.64-5.33,8-11.45,6.25-14-5.38-26.17S1616.13,593.76,1611.4,589.69Z"/><path class="cls-13" d="M1319.07,352.87c-4.35,4.25-11.29,11-16.59,18.28.25,4,2.56,4.1,8.86-1.92q20.07-19.14,39.39-39l.06-.07C1338.86,335.39,1328.32,343.83,1319.07,352.87Z"/><path class="cls-22" d="M1326.95,476.57c13.83,8.27,29.35,14.16,44.29,20.16,6.84,2.74,9.68.61,15-4.24,28.74-26.39,56.11-54.06,82.39-82.92,6.55-7.17,6.75-7.47,3.64-15.63-1.47-3.83-2.94-7.75-4.44-11.67-7.8,25-24.34,43.13-44.33,62.66-11.12,10.86-22.88,20.73-36.31,28.64-19.25,11.34-47.31,6.64-51.74-15.08-2.62,2.17-5.21,4.39-7.87,6.52C1321.13,470.16,1320.5,472.71,1326.95,476.57Z"/><path class="cls-23" d="M1377.48,457c25.55-15.39,66.33-55,68.76-81.12.55-5.94-1.2-11-8.64-2.11-33.49,39.89-56.48,61.13-69.46,71.14C1349.81,459,1353.56,471.39,1377.48,457Z"/><path class="cls-14" d="M1297.66,466.46c54-39.37,100.89-89.51,143-141.19,6.94-9.85,1.37-21.83-7.78-28.59-4.89,37.39-37.5,70.91-62.77,95.54-17.61,17.18-71.69,68.95-103.2,56.85a29.42,29.42,0,0,0,6.84,8.69C1279.1,462.59,1290.61,471.48,1297.66,466.46Z"/><path class="cls-16" d="M1395.57,517.94a27.8,27.8,0,0,0,3.22,3.2c5.7,4.74,11.09,6.06,17.1,1.84,32.26-23.05,62.41-48.39,84.43-81.74,2.42-4.29,1.25-10.49-1.21-15.32-8,20-21.91,35.61-37.88,50.75C1446.37,490.76,1419.58,520.56,1395.57,517.94Z"/><path class="cls-6" d="M1217.6,390.34l14.9,1.28c4.69.39,8.64,3.62,8.64,8.64,0,4.4-3.94,9-8.64,8.64l-14.9-1.28c-4.69-.4-8.64-3.62-8.64-8.64C1209,394.58,1212.9,389.94,1217.6,390.34Z"/><path class="cls-6" d="M1225.14,332.3q14.43,4.38,28.85,8.72c10.64,3.2,6.1,19.88-4.59,16.66L1220.55,349C1209.91,345.74,1214.45,329.07,1225.14,332.3Z"/><path class="cls-6" d="M1291.3,297.15c8.34,7.42-3.93,19.6-12.21,12.21q-20.58-18.32-39.85-38c-7.79-8,4.41-20.19,12.22-12.22Q1270.73,278.83,1291.3,297.15Z"/><path class="cls-6" d="M1373.06,269.29c-4.53,0-8.87-3.93-8.64-8.64q.48-9.54,1-19.09a8.76,8.76,0,0,1,8.64-8.64c4.53,0,8.88,3.94,8.64,8.64q-.49,9.56-1,19.09A8.75,8.75,0,0,1,1373.06,269.29Z"/><path class="cls-6" d="M1313.74,273.68q-2.1-16.1-4.22-32.22c-.61-4.68,4.39-8.64,8.64-8.64,5.17,0,8,4,8.64,8.64q2.11,16.12,4.22,32.22c.61,4.68-4.39,8.64-8.64,8.64C1317.21,282.31,1314.35,278.35,1313.74,273.68Z"/><path class="cls-5" d="M2538.86,573.53c35,41.1,97.17,8.68,130.2-17.56,39.59-31.44,69.74-72,84.23-120.77,13.62-45.8,24.52-118-13.39-155.51-32.41-32.06-69.65-6.37-104.9,4.17-15.48,4.63-52.61,15.93-62-1.89-9.75-18.53,3.77-37.23-4.65-58.23-15.21-37.9-76.15-66.68-115.11-54.92-17.44,5.26-29.77,19.29-37.88,35-10.86,21-33.67,36.93-46.71,58.06-22.14,35.88-44.16,83.5-46.7,126.22-3.59,60.32-48.14,124.25-71.27,180.5-31,75.38-113.34,253-10.16,304.13,37.74,18.71,89.66,14.88,124-9.49,33.41-23.72,32.25-61.47,30.9-97.94-3.45-93.56,18.59-220,95.18-284.17,1.39,1,2.32,1.78,2.9,2.28C2526.72,510.58,2513.69,544,2538.86,573.53Z"/><path class="cls-5" d="M2493.48,483.39c-.93-.77-1.89-1.53-2.9-2.28C2489.6,481.93,2496.61,486.1,2493.48,483.39Z"/><path class="cls-2" d="M2477.23,467.76c36.93,27.59,22.41,62.07,48.28,92.42,35,41.1,97.17,8.68,130.2-17.56,39.59-31.44,69.74-72,84.23-120.77,13.62-45.8,24.52-118-13.39-155.51-32.41-32.06-69.65-6.37-104.9,4.17-15.48,4.63-52.61,15.93-62-1.89-9.75-18.53,3.77-37.23-4.65-58.23-15.21-37.9-76.15-66.68-115.11-54.92-17.44,5.26-29.77,19.29-37.88,35-10.87,21-33.67,36.93-46.71,58.06-22.14,35.88-44.16,83.5-46.7,126.22-3.59,60.32-48.14,124.25-71.27,180.5-31,75.38-113.34,253-10.16,304.13,37.74,18.71,89.66,14.88,124-9.49,33.41-23.72,32.25-61.47,30.9-97.94-3.45-93.56,18.59-220,95.18-284.17C2486.14,474.42,2476.07,468.74,2477.23,467.76Z"/><path class="cls-6" d="M2453.87,435.75c22.47-32.81,69.73,16.36,88.06,48,3.47,6,7.6,17,9.14,39.31.76,10.93,7.71,18.9,22.34,17,34.52-4.49,69.53-35.5,91.59-60.35,29.16-32.83,43.18-76.17,46.43-119.26,1.12-14.83,2.1-39.12-5.34-55.41-9-19.75-21.14-18.11-37.55-10.54-34.17,15.77-77.65,27.58-113.62,19.32-22.9-5.25-29.9-27.56-39.24-45.89a35.73,35.73,0,0,0-4.89-7.18c5.7-13.13,14.42-27.69,5-40.82-6.83-9.53-18.59-15.48-29.12-19.87-9.69-4-20.91-8.44-31.63-7.71-14.52,1-20.61,21.13-25.61,33.76-3.91,1-8,3.4-13,8-31.8,29.72-52.74,80.84-64.66,121.77-3.6,12.36-6.55,27.17-1.53,39.52-.08.18-.19.31-.26.5-30,75.51-68.66,146.59-95.27,223.73-17.54,50.85-33.37,105.27-37.91,159.06-1.86,22,14.7,42,34.93,48.5a92.25,92.25,0,0,0,70.13-5.34c28-14,22-42.25,21-68.46-4.34-117.58,25.48-225.85,105.81-313.76A10.14,10.14,0,0,0,2453.87,435.75Z"/><path class="cls-19" d="M2669.06,313.09c5.72-2.47,11-5,15.84-7.36,17.83,5,6.51,78.41,4.46,88.18-5.7,27.13-19.47,52-36.58,73.55-14.3,18-33.07,31.73-52.85,43-2.71,1.55-29.9,15.47-31.75,10.61-2.32-6.1-1.82-12.86-2-19.37C2642,479.75,2685.42,387.6,2669.06,313.09Z"/><path class="cls-7" d="M2450,220.52c6.46-15,12.9-10.86,25.67-6.4a76.49,76.49,0,0,1,22.7,12.26c4.8,3.91,4.18,10,2,16.2-2.84,8-5.39,5.68-13.53,2.15-9.54-4.14-19.63-7.25-28-10.54C2448,229.94,2446.8,227.86,2450,220.52Z"/><path class="cls-7" d="M2421.88,444.2c-46.35,55.87-76.6,119.69-89.43,192.22-6.82,38.54-7.76,77.94-6.82,117,.41,17.28,7.48,38.86-8.32,51-11.53,8.86-27.78,10.41-41.73,10.11-52.71-1.11-40.09-51.77-32.75-87.7,10.11-49.49,26.07-97.72,43.88-144.91,20.79-55.1,48.45-107.07,71.5-161.06,5.11-12,6.71-12.34,15.29-9.3,15.44,5.47,30.38,12.11,45.47,18.37C2427.82,433.57,2428,436.79,2421.88,444.2Z"/><path class="cls-18" d="M2410.79,407.73c-15-6.74-46.51-10.87-45.77-29.86,1.2-30.11,19.66-62.06,33.68-87.82a258.53,258.53,0,0,1,24.3-37.42c11-13.85,16.12-7.94,31.16-1.79,16.86,6.88,39.37,11.55,48.23,29,4.5,8.84,8.05,17.83,13.56,26.15,26.34,39.82,84.58,31.83,130.7,15.85,12.59-4.36,13.7-3,14.93,10.52,5.57,60.84-27.74,129.46-84.12,154.33-11.53,5.09-12.5,4.08-16.13-5-8.88-22.18-25.84-38.79-45.46-53.37-11.32-8.41-40.93-30.61-57.16-21.08-7.81,4.59-7.88,4.56-13.85,11.45S2418.5,411.18,2410.79,407.73Z"/><path class="cls-20" d="M2566.23,501.75c0,1.15,0,2.32,0,3.48,27.27-5.48,50-22.93,69.13-42.34,36.31-36.76,53.77-101.06,37.72-151.61-1.34.61-2.64,1.2-4,1.81C2685.42,387.6,2642,479.75,2566.23,501.75Z"/><path class="cls-11" d="M2421.88,444.2c6.15-7.41,5.94-10.62-2.92-14.31-10.09-4.18-20.12-8.52-30.26-12.58a100,100,0,0,1,12.12,13.23c9.44,12.35-.68,25.13-7.92,35.19-11.77,16.35-23.46,32.69-34,49.86-19.9,32.41-31.08,67.87-37.42,105.16-6.25,36.68-7.44,74.12-8.72,111.23-.8,22.89-1.19,46.47-16.87,64.78-8.78,10.23-22.67,13.23-36.11,15.36a57.31,57.31,0,0,0,15.8,2.36c14,.3,30.2-1.25,41.73-10.11,15.8-12.13,8.73-33.72,8.32-51-.94-39,0-78.43,6.82-117C2345.29,563.89,2375.54,500.07,2421.88,444.2Z"/><path class="cls-11" d="M2500.32,242.57a28,28,0,0,0,1.5-6.13,85.76,85.76,0,0,1-28.95-6.48c-7.32-3.09-16.54-6.66-20.94-13.39a38.1,38.1,0,0,0-2,3.94c-3.17,7.34-2,9.42,8.79,13.66,8.4,3.29,18.5,6.4,28,10.54C2494.93,248.26,2497.48,250.62,2500.32,242.57Z"/><path class="cls-12" d="M2282.68,638.22c-12.74,31.61-22.55,64.45-26.15,98.35-1.22,11.45-2.92,54.8,21.55,40.21,6.84-4.09,6.93-16.35,7.28-23.11.91-17.74.64-35.6,1.07-53.35a554.68,554.68,0,0,1,4.27-60.42C2291.74,632.15,2287.24,626.91,2282.68,638.22Z"/><path class="cls-22" d="M2365,377.87c-.75,19,30.76,23.12,45.77,29.86,7.7,3.46,28.09,17.79,34.06,10.91s6-6.86,13.85-11.45c16.23-9.53,45.84,12.67,57.16,21.08,19.62,14.58,36.58,31.2,45.46,53.37,3.63,9.07,4.6,10.08,16.13,5,43-19,72.52-63.4,81.66-110.4-7.62,22.16-19.94,42.53-37.51,58.58-9.49,8.68-20.93,14.6-33.12,18.41-14.76,4.62-26.47-4.08-35.72-14.36-12.86-14.32-22.62-31.84-38.17-43.65-11.33-8.6-26.07-16.27-40.83-12.88-22.22,5.09-40.87,21.84-64.79,16.47-29.37-6.59-32.08-43.14-29.51-71.85C2371.79,343.57,2365.7,361,2365,377.87Z"/><path class="cls-23" d="M2427.08,271.82a73.23,73.23,0,0,0-10.4,21.44c-2.1,8.57,4.69,15.65,12.8,18.57,26.7,9.65,50.05,9.91,67.63,36.05,19.67,29.25,47.62,54.16,84.13,58,36.27,3.8,50.92-29.52,59.57-58.76,3.71-12.57-4.19-8.95-11.37-6.13-36.52,14.38-80.45,14.57-113.85-6.9-19.68-12.65-22.8-35.35-36.86-52.13-7.15-8.56-19.42-11.95-30.5-15.5S2435.46,260.59,2427.08,271.82Z"/><path class="cls-6" d="M2391.82,379.61c4.68,4.77-2.64,12.11-7.33,7.33a19.35,19.35,0,0,1-5.6-10.94c-.38-2.79.64-5.56,3.63-6.39,2.45-.67,6,.82,6.38,3.63A10.36,10.36,0,0,0,2391.82,379.61Z"/><path class="cls-6" d="M2402.76,362.64c1.69,2.28.38,5.79-1.86,7.1-2.65,1.54-5.41.41-7.09-1.86a35,35,0,0,1-6.55-17.64c-.29-2.81,2.58-5.18,5.18-5.18,3,0,4.89,2.38,5.19,5.18A25,25,0,0,0,2402.76,362.64Z"/><path class="cls-6" d="M2413.27,346.7c2.47,6.22-7.57,8.9-10,2.75a115.81,115.81,0,0,1-5.79-19.36c-1.34-6.52,8.65-9.3,10-2.75A114.58,114.58,0,0,0,2413.27,346.7Z"/><path class="cls-5" d="M2176.24,1755.59c3.3,36.32,25.37,79,64.25,86.24,35.5,6.67,78.54-18.32,110.82-30.21q53-19.54,106-39.11c28.44-10.49,61.28,7.8,89.87,15.58,42.92,11.68,88.08,28.45,132.17,34.39,80.94,10.91,128.9-102.84,58.16-149.24l-6.88-3.77c49.86-21.62,46-91.18,16-127.82,28.59-6.91,42.4-40.8,27.52-66-17.23-29.19-51.6-7.42-49.9-40.18,1.26-24.3,3.79-15.15,24.34-23a45.07,45.07,0,0,0,28.46-37.37c4.93-49.84-40.13-45.12-72-42.82,31.53-15.35,42.49-59.45,8.67-80.3-41.6-25.65-67.11,33.47-99,27.62,19-26.24,43.3-62.79,4.39-86.71-34.36-21.11-75.48,16.68-83.38,50.41-13.11-20.19-10.08-25-6.36-47.73,3.37-20.51,1.21-40.77-18-53.22-47.47-30.76-63.62,22.34-72.28,55.42-4.26,25.93-13.34,37-34.11,17.72-16-14.78-38.29-19.84-57.33-6.67-41,28.34-9,67.3,16.87,89.89-31.94-1.34-77.63-85.15-122.78-34.35-53.94,60.67,57.81,68.66,55.38,95.4-84.54-49.09-136.83,65-39.31,81-7,20.38-40.36,7.8-57.14,23.7-25.82,24.49-12.5,69.81,22.82,76-43.58,38.2-41.38,112.09,10.86,139.72C2198.09,1693,2172.38,1713.12,2176.24,1755.59Z"/><path class="cls-2" d="M2724.16,1659.9l-6.88-3.77c49.86-21.62,46-91.18,16-127.81,28.59-6.91,42.4-40.8,27.52-66-17.23-29.19-51.6-7.42-49.9-40.18,1.26-24.3,3.79-15.15,24.34-23a45.06,45.06,0,0,0,28.46-37.37c4.93-49.84-40.13-45.12-72-42.82,31.53-15.35,42.49-59.45,8.67-80.3-41.6-25.65-67.11,33.47-99,27.62,19-26.24,43.3-62.79,4.39-86.71-34.36-21.11-75.48,16.68-83.38,50.41-13.11-20.19-10.08-25-6.36-47.73,3.37-20.51,1.21-40.77-18-53.22-47.47-30.76-63.62,22.34-72.28,55.42-4.26,25.93-13.34,37-34.11,17.72-16-14.78-38.29-19.84-57.33-6.67-41,28.34-9,67.3,16.87,89.89-31.94-1.34-77.63-85.15-122.78-34.35-53.94,60.67,57.81,68.67,55.38,95.4-84.54-49.09-136.83,65-39.31,81-7,20.38-40.36,7.8-57.14,23.7-25.82,24.49-12.5,69.81,22.82,76-43.58,38.2-41.38,112.09,10.86,139.72-36.22,12.73-61.92,32.9-58.07,75.36,3.3,36.32,25.37,79,64.25,86.24,35.5,6.67,78.54-18.32,110.82-30.21q53-19.54,106-39.1c28.44-10.49,61.28,7.8,89.87,15.58,42.92,11.68,88.08,28.46,132.17,34.39C2746.93,1820,2794.89,1706.3,2724.16,1659.9Z"/><path class="cls-6" d="M2252.48,1638.33c25.73,11.07,51.83,21.32,78.1,31.1q-56.69,20.41-113.57,40.33c-28.18,9.83-11.08,54.1.61,69.26,16.18,21,37.55,8,57.3.72q85.23-31.36,170.4-62.83c2.63-1,13.36-4.48,14.39-4.17,54.6,16.54,109.73,31.38,164.88,45.14,18.08,4.51,48.14,17.64,66.83,11.45,30.64-10.16,37.36-59.53,11.27-76.64a8.63,8.63,0,0,0-3.51-1.37c-34.61-12.53-71-21.4-106.76-31.15,35.82-13.23,71.62-26.47,107.59-39.29,25.27-9,16.3-47.26,6-63.62-14-22.33-35.12-13.93-54-5.63q-17.05,7.49-34.17,14.8c12.74-22.78,22.93-46.89,32.13-71.4,9.38-25,25.12-60.61,21.4-87.92-4-29.32-44.39-1.9-70.71,19,3.79-17.78,5.91-35.89,7.73-54,1.4-13.92,10.58-50.69-3.09-62-23.41-19.4-58.27,15.14-79,40.45a312.27,312.27,0,0,0-28.38-84c-6.62-13.25-21.64-40.69-40.9-36.44-42.73,9.45-47.79,84.69-48,128.72-23.34-20.32-59.82-49.32-80.18-25.2-10.09,11.95-5.8,31.84-3.61,45.6a243.8,243.8,0,0,0,17,59c-32.07-15.33-71.6-21.57-60.36,27.36,8.26,36,23.61,78.39,48.09,109.92q-31.7-11.66-63.14-24c-10.77-4.24-18.84-3.87-28.64,3.35-13.23,9.73-17.63,28.08-19.57,43.37C2215.44,1622.95,2233.14,1630,2252.48,1638.33Z"/><path class="cls-18" d="M2412.93,1710.51q-83.56,30.87-167.16,61.58c-14.09,5.16-21.4-13.47-24.74-23.59-6-18.32,1.38-22.34,15.29-27.21q54.6-19.13,109-38.81c8.2-3,12.39-3.15,18.52-1q29.56,10.43,59.44,20C2430.84,1703.9,2423.51,1706.61,2412.93,1710.51Z"/><path class="cls-18" d="M2673.68,1560.85c17.64-7.69,24.55,17.53,25.41,29.18,1,13-8.79,15.92-18.33,19.37-34.2,12.36-68.3,25-102.42,37.58-8.07,3-16.27,4.49-24.38,2.08q-20.79-6.22-41.52-12.59c-6.72-2.07-10.79-4.55-1.31-8.29C2553.65,1611.39,2652.11,1570.26,2673.68,1560.85Z"/><path class="cls-10" d="M2437.5,1538.93c-4.22-22.76-10.67-44.92-15.62-67.51q4.54,3.17,9.07,6.38c5.43,3.83,10.82,7.81,16.38,11.49,6.53,4.3,12.12,2.54,13.89-6.71,2.47-12.84,8-25.38,13.08-37.22,1.26-2.93,4.39-11,7.05-16.53,7.86,16.52,12.53,34.34,17.51,51.93,2.17,7.71,7.75,8.11,13.14,3.38,6.78-6,16.34-13,25.21-16-2.71,19.3-6.82,38.56-13.38,56.9-4.4,12.24-.57,14.24,10,10.72,8.43-2.84,16.89-5.44,25.51-7.68,6.47-1.66,10.92-1.56,7.11,6.45-3.33,7-6.94,13.93-10.58,20.82-9.14,17.34-20,33.69-31.55,49.51-16.91,6.6-33.87,13.09-50.92,19.33h0q-9.85-3.12-19.68-6.29c-14.9-4.8-19.25-7.59-30.5-28.55a358.62,358.62,0,0,1-16.77-36.69q-1.42-3.66-2.7-7.37c-2.21-6.51.2-6,5.67-4.43a91.71,91.71,0,0,1,17.37,6.87C2434.51,1551.89,2439.73,1550.91,2437.5,1538.93Z"/><path class="cls-9" d="M2310.47,1497.71c-4.52-12.05-8.31-24.39-12-36.74-9.1-30.81,41.49-4.49,57.26,5.24,8.7,5.37,23,3.19,13.33-13.2-14.39-24.45-21.53-50.67-27.19-78.44-3.49-17.17,1.66-37.52,22.23-26.17,14.35,7.92,28.16,19.56,41.1,30.17s21.25,11.35,21.15-8c-.2-35.7,2.48-70.6,17-103.74,16.21-36.94,35.36-.18,44,17.22,12.46,24.95,20.16,52.47,23.85,80.09,2.74,20.69,10.63,19.68,21.65,5.88,8.36-10.47,17.84-19.49,27.92-28.51a240.89,240.89,0,0,1,21.27-16.82c15-10.63,10.71,26.82,10.62,28.07-2.21,30.15-5.09,60.55-14,89.51-5.17,16.71,5.33,19.84,16.21,11.14a522.63,522.63,0,0,1,47.5-33.88c3.64-2.31,11.76-6.4,9.77,6.16-1.84,11.65-7.24,29-8.59,33.79-11.91,41.44-29.19,82.43-53,118.5q-24.37,10.21-48.92,20c6.64-9.73,13-19.63,19-29.87,7.29-12.58,20.93-31.28,21.5-46a5.12,5.12,0,0,0-2.57-4.47c-11.08-6.49-30.36.76-44.46,6.36,6.8-20.15,10.8-41.28,13.4-62.35.33-2.65-2.61-5.39-5.18-5.19-12.53,1-25.45,9.23-35.6,17.75-5.59-19.81-11.18-39.67-21.15-57.78-1.46-2.66-4.58-3-7.09-1.87-7.12,3.27-11.36,19.32-14.17,25.62-5.6,12.54-11,25.58-13.84,39.09-11-8.56-24-21.66-35.84-22.91-2.38-.25-4.27,1.8-5,3.81-2.64,7.31,2.08,18.16,3.82,25.1,4.21,16.8,8.46,33.52,11.81,50.48-11.55-5.91-27.71-12.08-35.12-5.94a5.17,5.17,0,0,0-1.34,5c6.08,24.9,17.41,50.43,31.74,72.62q-26.91-9-53.66-18.39C2338.08,1568.17,2322.8,1530.62,2310.47,1497.71Z"/><path class="cls-7" d="M2256.71,1565.94c11,4.39,22,8.64,33.06,12.88,23.66,9.08,103.27,37.47,118.7,42.67q20,6.72,40,13.19c81,26.05,165.84,44.17,245.78,73.19,19.65,13.48.46,49.58-20.37,44.25-6.6-1.69-13.25-3.2-19.88-4.81q-48.19-11.62-96-24.58c-104.24-28.13-207.7-61-307-103.67-12-5.17-15.23-7.37-15.18-20.88C2235.89,1590.59,2244.52,1561.06,2256.71,1565.94Z"/><path class="cls-11" d="M2699.33,1736.92c-27.87,4.25-57.23-5.87-85.22-12.9-46.25-11.62-91.91-23.89-137.23-38.83q-65.52-21.63-130.37-45.4c-22.7-8.32-45.21-17.14-67.64-26.16-17.78-7.14-32.88-18.2-38-34.38-3.16,7.29-5,15.43-5,18.92,0,13.51,3.16,15.71,15.18,20.88,99.27,42.67,202.72,75.54,307,103.67q47.85,12.92,96,24.58c6.63,1.61,13.28,3.12,19.88,4.81C2684.38,1754.78,2694.41,1747,2699.33,1736.92Z"/><path class="cls-12" d="M2693.33,1707.53c-79.66-28.8-164.13-46.91-244.82-72.85q-20.07-6.46-40-13.19c-15.42-5.2-95-33.59-118.7-42.67-11-4.24-22.08-8.49-33.06-12.88a7,7,0,0,0-1.81-.43C2320.11,1602.1,2532.28,1675.24,2693.33,1707.53Z"/><path class="cls-13" d="M2448.71,1541.84c3.22,13,7.62,25.55,12,38.25,3,8.86,5.7,17.7-6.82,10.26-4-2.36-7.77-5.06-11.54-7.8-8.94-6.51-11.59-8-6.32,6.17,3.32,8.91,6.86,17.74,10.29,26.61,2.16.89,4.58,1.73,7.37,2.62q9.83,3.18,19.68,6.29h0c10-3.67,20-7.57,30-11.39,6.63-12.45,13.86-24.46,19.67-37.2,6-13.15,13.79-24.23-13.23-8-6.52,3.9-19.81,14-15.73-.54,3.34-11.91,7.92-23.34,11.8-35,7.05-21.34,1.48-15.77-8.65-5-6.91,7.29-13.12,14.55-13.59-1.14-.18-5.9-.54-11.59-1.23-17.26-2.75-22.64-4.46-22.28-7.57.47-1.13,8.25-1.73,16.55-2.23,24.95-.48,8.21-.66,17.74-10.18,8.4a96,96,0,0,1-6.43-7.14C2439.61,1515.58,2446.69,1533.72,2448.71,1541.84Z"/><path class="cls-22" d="M2245.77,1772.09q83.65-30.57,167.16-61.58c10.58-3.9,17.91-6.62,10.35-9-2.9-.93-5.78-1.92-8.68-2.85-4.85,1.72-9.66,3.51-14.52,5.2-32.78,11.35-65.42,23.08-98.31,34.1-14.82,5-29.74,9.66-44.82,13.75-11.3,3.08-22.95,4.56-34-.51-.42-.19-.8-.47-1.21-.67C2225.31,1760.84,2232.56,1776.92,2245.77,1772.09Z"/><path class="cls-22" d="M2578.35,1647c34.12-12.58,68.22-25.22,102.42-37.58,9.54-3.45,19.29-6.33,18.33-19.37-.05-.75-.14-1.58-.25-2.44a209.51,209.51,0,0,1-21.27,10.87c-16.32,7.6-33.12,14.17-49.85,20.8-25.23,10-50.6,19.61-76,29.12.75.22,1.51.46,2.27.69C2562.07,1651.48,2570.28,1650,2578.35,1647Z"/><path class="cls-23" d="M2326.25,1697.29q20.82-7.24,41.68-14.39c-1.36-.49-2.73-.93-4.09-1.42-6.14-2.16-10.33-2-18.52,1q-54.42,19.62-109,38.81c-10.85,3.81-17.66,7.2-17.29,17.16,11.28-8.64,27.11-12.72,40-17.39C2281.37,1713,2303.81,1705.13,2326.25,1697.29Z"/><path class="cls-23" d="M2508.65,1635.08c24.33-8.94,48.47-18.39,72.56-28q29-11.54,57.8-23.54c18.76-7.84,34.41-14.84,54.19-14.43-4-7.32-10.29-12.31-19.51-8.29-21.57,9.41-120,50.54-162.55,67.33C2503.69,1631.13,2504.65,1633.29,2508.65,1635.08Z"/><path class="cls-14" d="M2310.47,1497.71c12.32,32.91,27.6,70.46,57.46,91.33q26.76,9.43,53.66,18.39a253.53,253.53,0,0,1-16.22-29.36c-17.24-6.4-33.47-15.2-48.39-28.44-22.11-19.62-38.53-44.33-52.81-70.15C2306.15,1485.6,2308.22,1491.69,2310.47,1497.71Z"/><path class="cls-14" d="M2557.18,1573.8q-7.43,12.31-15.49,24.15,24.54-9.8,48.92-20c19.42-29.38,34.41-62.05,45.77-95.55C2617.49,1519.23,2591.11,1552,2557.18,1573.8Z"/><path class="cls-15" d="M2647.33,1417.25a17.79,17.79,0,0,0-4.88,2.25,522.63,522.63,0,0,0-47.5,33.88c-10.88,8.69-21.37,5.57-16.21-11.14,8.93-29,11.8-59.36,14-89.51.09-1.25,4.33-38.7-10.62-28.07a240.89,240.89,0,0,0-21.27,16.82c-10.08,9-19.56,18-27.92,28.51-11,13.79-18.91,14.81-21.65-5.88-3.69-27.62-11.39-55.14-23.85-80.09-8.69-17.4-27.84-54.16-44-17.22-14.54,33.14-17.22,68-17,103.74.11,19.37-8.33,18.55-21.15,8s-26.75-22.24-41.1-30.17c-20.57-11.34-25.73,9-22.23,26.17,5.66,27.77,12.8,54,27.19,78.44,9.63,16.39-4.63,18.57-13.33,13.2-12.44-7.68-46.46-25.57-55.82-17.7,16.8-1.6,29.28,11.78,44.65,18.09,31.35,12.88,49.52,17.74,28.3-23.46-13.48-26.17-21-53.13-23-60.75-7-26.64,1.5-36.21,26-15.08,14.27,12.33,31.76,33.52,45.56,33.1,17.88-.55,13.45-48.05,14.43-58,2.11-21.14,6.16-42.2,13.17-62.27,11.43-32.65,18.67-19.71,27.77-2,16.5,32.08,19.6,77.3,25.79,106.75,5.22,24.8,24.82,5,34-5,9.95-10.8,18.84-21.13,29.36-30.66,21.83-19.75,22.18-16.67,19.81,5.93-1.35,13-4.74,48.19-15.76,85.82-10.8,36.92,12.53,31.46,28.12,18.15C2605.9,1452.43,2641.32,1421.79,2647.33,1417.25Z"/><path class="cls-6" d="M2259.79,1285.87c-6.26-2.21-3.5-12.22,2.82-10a139.9,139.9,0,0,1,33.23,16.91c5.47,3.78.24,12.74-5.26,8.93A130.12,130.12,0,0,0,2259.79,1285.87Z"/><path class="cls-6" d="M2218.09,1478.34a68,68,0,0,0,28.95-2.66c6.37-2,8.11,8.26,1.82,10.21a75.47,75.47,0,0,1-31.73,2.78C2210.51,1487.86,2211.44,1477.52,2218.09,1478.34Z"/><path class="cls-6" d="M2355.84,1236.5c-4.87-4.52,1.39-12.8,6.28-8.25l20.78,19.25c4.87,4.51-1.39,12.79-6.28,8.24Z"/><path class="cls-6" d="M2643.56,1291.18a139.79,139.79,0,0,1,31.88-19.33c6.14-2.7,9.63,7.07,3.56,9.74a129.76,129.76,0,0,0-29.55,18.11C2644.26,1303.91,2638.39,1295.36,2643.56,1291.18Z"/><path class="cls-6" d="M2690.15,1358.25a82.12,82.12,0,0,0,28.37-5.7c6.25-2.4,8.93,7.63,2.75,10a90.23,90.23,0,0,1-31.12,6.08C2683.46,1368.71,2683.47,1358.35,2690.15,1358.25Z"/><path class="cls-6" d="M2230.49,1383.05c-6.07-2.55-3.33-12.55,2.85-10a81.22,81.22,0,0,0,28.22,6.54c6.66.28,6.52,10.64-.17,10.37A89.14,89.14,0,0,1,2230.49,1383.05Z"/><path class="cls-6" d="M2694.22,1474.65a68.17,68.17,0,0,0,28.58,5.41c6.68-.18,6.67,10.19,0,10.37a75.37,75.37,0,0,1-31.33-5.79C2685.39,1482.1,2688.07,1472.07,2694.22,1474.65Z"/><path class="cls-6" d="M2561.38,1237q8.43-11.4,16.82-22.8c4-5.36,12.54.48,8.56,5.87l-16.82,22.8C2566,1248.18,2557.41,1242.35,2561.38,1237Z"/><path class="cls-6" d="M2464.36,1190.78c1.78-10.8,2.43-14.79,4.21-25.6,1.08-6.59,11.31-4.91,10.23,1.69-1.78,10.8-2.43,14.79-4.21,25.59C2473.51,1199.06,2463.28,1197.37,2464.36,1190.78Z"/></g></g></svg>