<svg xmlns="http://www.w3.org/2000/svg" xmlns:xlink="http://www.w3.org/1999/xlink" viewBox="0 0 2011.84 1830"><defs><style>.cls-1{fill:none;}.cls-2{fill:#f2e6dc;}.cls-3{fill:#fff;}.cls-4{fill:#f7f1eb;}.cls-5{fill:#e6d0be;}.cls-6{fill:#363e44;}.cls-7{fill:#d87355;}.cls-8{fill:#776e42;}.cls-9{fill:#efbc73;}.cls-10{fill:#e2a18d;}.cls-11{clip-path:url(#clip-path);}.cls-12{fill:#bc8271;}.cls-13{fill:#84524d;}.cls-14{fill:#ffd092;}.cls-15{fill:#8b865c;}</style><clipPath id="clip-path"><path class="cls-1" d="M1314.33,470.1s11.51-4.51,22.41-.68,17.07,14.53,17.07,14.53-11.51,4.51-22.41.68S1314.33,470.1,1314.33,470.1Z"/></clipPath></defs><title>cat-clothing-img</title><g id="Illustration"><g id="Winter_hiking" data-name="Winter hiking"><path class="cls-2" d="M1910.57,916c0,505.88-405.74,907.15-911,907.15S91.3,1421.86,91.3,916,500.9,0,1006.17,0c484.22,0,880.58,376.63,912.77,853.27C1920.34,874,1910.57,894.9,1910.57,916Z"/><path class="cls-3" d="M1918,842.3,1773,1097.22l-97,70.63-145.5,123.6-66.14,150.09L1169,1423.88l-246.91,92.7-185.18-8.83L481.49,1681.87c144.58,95.81,338,148.13,524.36,148.13,505.27,0,914.88-410.1,914.88-916Q1920.73,877.81,1918,842.3Z"/><path class="cls-3" d="M1124.12,576.33l-205.8-188.7L802.39,484.47l-72.11-51.86-28.69,37.52L685,465.72l-58.49,82.77-65.11-46.35-128,109.26L293.56,473,216,635.67c-3.37,7.7-14.52-7.07-17.66,0-54,121.71-76.15,176.57-103,256.94-.28.83-.55,34.43-.55,35.31,0,18,2.29,84.35,3.31,102.08l1126.6-202.45Z"/><polygon class="cls-4" points="1115.24 972.7 881.26 584.5 792.59 710.58 743.72 648.06 663.94 757.88 624.08 710.58 510.05 840.78 408.37 699.2 290.65 848.85 244.25 806.45 105.68 977.03 1115.24 972.7"/><polygon class="cls-2" points="127.54 960.29 325.45 881.57 479.95 934.54 610.18 870.53 888.28 978.68 127.54 960.29"/><path class="cls-4" d="M782.19,706.52l42.93,17L962.9,506.41l90.27,30.32,129.05-197.35,145.51,193.4,105.7-51.8,133.14,210.8,57,23.91,42.55-46,210.42,170.44c14.41,51.83,28.78,103.57,31.82,132.25L658.45,974.55l-1.67-27.87L741.7,817.87Z"/><polygon class="cls-2" points="1190.71 363.87 1191.2 448.59 1221.78 509.87 1233.01 569.16 1258.21 614.11 1264.94 676.02 1371.78 776.18 1310.35 680.51 1291.78 604.83 1256.69 565.04 1252.21 489.07 1218.15 464.1 1190.71 363.87"/><polygon class="cls-2" points="830.15 822.76 847.56 737.93 894.65 698.57 921.7 604.72 972.27 549.93 921.7 650.67 906.69 717.47 869.86 741.25 830.15 822.76"/><polygon class="cls-2" points="1643.1 770.86 1577.68 734.8 1497.76 706.17 1464.06 657.57 1436.66 587.93 1414.52 493.09 1470.18 623.46 1526.94 698.04 1596.78 721.02 1643.1 770.86"/><polygon class="cls-2" points="1056.21 549.93 1094.07 585.63 1115.5 636.09 1164.13 701.68 1173.66 760.55 1229.87 797.28 1294.49 893.12 1213.6 893.12 1205.98 832.19 1137.4 761.39 1127.88 693.2 1090.74 639.89 1076.21 588.84 1056.21 549.93"/><polygon class="cls-2" points="1721.33 793.37 1705.73 750.34 1673.2 699.79 1688.99 766.43 1717.9 816.38 1805.43 853.28 1721.33 793.37"/><polygon class="cls-2" points="783.78 730.38 789.79 780.4 787.32 817.52 753.7 856.86 712.7 883.47 765.98 820.39 783.78 730.38"/><polygon class="cls-3" points="1908.73 969.49 1466.51 761.43 1375.41 820.22 1335.32 807.65 1071.84 931.08 976.93 844.31 882.78 919.73 765.06 871.81 555.25 975.35 1910.57 985.67 1908.73 969.49"/><polygon class="cls-5" points="753.45 975.37 470.05 981.09 533.05 818.89 597.82 729.39 672.11 811.68 753.45 975.37"/><polygon class="cls-5" points="717.13 867.64 493.85 867.64 592.12 675.32 717.13 867.64"/><polygon class="cls-5" points="658.93 665.82 542.75 665.82 595.38 577.44 658.93 665.82"/><polygon class="cls-5" points="694.8 799.12 507.8 799.12 600.69 654.38 694.8 799.12"/><polygon class="cls-5" points="679.55 735.94 524.64 735.94 597.36 616.79 679.55 735.94"/><path class="cls-6" d="M1323.09,932s39,167.45,33.64,224.26c-5.23,55.39-72.76,207-72.76,207H1191.4l39.17-220.47-50.1-201Z"/><path class="cls-7" d="M1168.38,1450.74l20.23-87.36,10.85-57.94,110.49,2.93-17.78,54.9c48.24-.05,72.94,39,73,87.24Z"/><path class="cls-6" d="M1290.79,1382.87a2.21,2.21,0,0,1-1.56-3.77l16.83-16.86a2.21,2.21,0,0,1,3.13,3.12l-16.83,16.86A2.2,2.2,0,0,1,1290.79,1382.87Z"/><path class="cls-6" d="M1310,1388.59a2.21,2.21,0,0,1-1.56-3.77l16.83-16.86a2.21,2.21,0,0,1,3.13,3.12l-16.83,16.86A2.2,2.2,0,0,1,1310,1388.59Z"/><path class="cls-6" d="M1293.45,1361h-.07l-23.81-.71a2.21,2.21,0,0,1-2.14-2.27,2.25,2.25,0,0,1,2.27-2.14l23.81.71a2.21,2.21,0,0,1-.06,4.41Z"/><path class="cls-6" d="M1300.22,1343.15h-.07l-23.81-.71a2.21,2.21,0,0,1-2.14-2.27,2.28,2.28,0,0,1,2.27-2.14l23.81.71a2.21,2.21,0,0,1-.06,4.41Z"/><path class="cls-6" d="M1307,1325.19h-.07l-23.81-.71a2.21,2.21,0,0,1-2.14-2.27,2.28,2.28,0,0,1,2.27-2.14l23.81.71a2.21,2.21,0,0,1-.06,4.41Z"/><path class="cls-6" d="M1221.19,970.67S1156.06,1129.78,1118.8,1173c-36.33,42.14-179.16,126.68-179.16,126.68l-75.49-53.59L1023.71,1089l75.53-192.94Z"/><path class="cls-7" d="M967.11,1426.18,794.74,1304.11l67.07-59.53,42.39-41L992.6,1270l-46.28,34.47A87.34,87.34,0,0,1,967.11,1426.18Z"/><path class="cls-6" d="M935.12,1320a2.21,2.21,0,0,1-.37-4.38l23.48-4A2.21,2.21,0,1,1,959,1316l-23.48,4A2.22,2.22,0,0,1,935.12,1320Z"/><path class="cls-6" d="M947.43,1335.79a2.21,2.21,0,0,1-.37-4.38l23.48-4a2.21,2.21,0,1,1,.74,4.35l-23.48,4A2.21,2.21,0,0,1,947.43,1335.79Z"/><path class="cls-6" d="M949.93,1303.76a2.19,2.19,0,0,1-1.33-.45l-19-14.36a2.21,2.21,0,0,1,2.66-3.52l19,14.36a2.21,2.21,0,0,1-1.33,4Z"/><path class="cls-6" d="M965.8,1293.1a2.19,2.19,0,0,1-1.33-.45l-19-14.36a2.21,2.21,0,0,1,2.66-3.52l19,14.36a2.21,2.21,0,0,1-1.33,4Z"/><path class="cls-6" d="M981.68,1282.35a2.19,2.19,0,0,1-1.33-.45l-19-14.36A2.21,2.21,0,0,1,964,1264l19,14.36a2.21,2.21,0,0,1-1.33,4Z"/><path class="cls-8" d="M1034.5,893.91c-21.27,1.62-54.39-29.07-64.74-40.28-13.24-14.35-26.49-28.69,106.66-276.06,16.89-31.38,49.57-51,85.2-50.24l106.11,18.58Z"/><path class="cls-7" d="M1611.47,791.19a41.29,41.29,0,0,0-11.52-2.45c-22.35-2-72.12-5.41-92.74-6.6L1499,873.61c38.33-.15,51.59-2.82,90.29,4.13h0c1.8,2,22.22,5.94,39.72,4.58,15-1.17,28.77-8.11,25.38-16.78-.12-.3.2-.64.41-.88,4.61-5.13,6.4-10.64,4.69-15.85-.18-.54-.75-1.22-.39-1.65,2.55-3.09,6.19-9.31,1.78-13.77-.34-.35-.1-1,.07-1.45,4.64-12.58-1.28-20.6-5.73-22.82C1640.31,793.23,1629.61,798,1611.47,791.19Z"/><path class="cls-6" d="M1523.25,1493.19l-14.89-2.61.38-2.17,123.92-706.71,14.89,2.61-.38,2.17Zm-9.78-6.19,6.19,1.09,122.78-700.19-6.19-1.09Z"/><polygon class="cls-6" points="1611.49 884.53 1631.91 888.94 1653.98 778.03 1628.6 773.62 1611.49 884.53"/><path class="cls-7" d="M1647.36,817.39c-7.34-.7-15.27,4.64-15.25,7.92,0,2.87,3.88,6.31,9.47,7.06-6.37-.58-11.16,3.55-11.39,7.16-.24,3.85,4.59,8.94,11.58,8.4-8.12-1.2-14.13,3-14.46,6.4s4.65,8.52,12.64,9.08c-8.77-1-14.9,3.17-15.13,6.64-.2,3.07,4.11,7,10.53,8.55Z"/><path class="cls-7" d="M1620.32,819.23c25.92.33,44.32-4.26,44.25-8.37-.13-6.91-22.14-16.25-60-21.51C1610.73,798.51,1614.21,810.07,1620.32,819.23Z"/><path class="cls-6" d="M1658.4,834.31h-26.49a2.21,2.21,0,0,1,0-4.41h26.49a2.21,2.21,0,0,1,0,4.41Z"/><path class="cls-6" d="M1656.37,850.87h-.14l-24.46-1.47a2.21,2.21,0,0,1-2.07-2.34A2.25,2.25,0,0,1,1632,845l24.46,1.47a2.21,2.21,0,0,1-.13,4.41Z"/><path class="cls-6" d="M1652.33,867.61l-.27,0-22.81-2.76a2.21,2.21,0,1,1,.53-4.38l22.81,2.76a2.21,2.21,0,0,1-.26,4.4Z"/><path class="cls-6" d="M1622.71,822.54a2.21,2.21,0,0,1-.21-4.4c9.32-.88,34.06-3.23,37.17-5.48a2.21,2.21,0,0,1,2.58,3.58c-3,2.15-13.64,3.86-39.34,6.29Z"/><path class="cls-9" d="M1566.58,779.44S1260.35,704.18,1259.69,814c-.61,101.48,279.39,87.16,279.39,87.16Z"/><path class="cls-9" d="M1279.89,534.25a96.82,96.82,0,0,0-40.11,6.35c-93.93,11.94-376.34,55.6-342.18,145.34,13.12,34.46,101.33,39.35,190,35-74,148.41-81.43,330.75-81.43,330.75L1367,1091.45S1438,543.79,1279.89,534.25Z"/><path class="cls-9" d="M1230.39,653.13s123.75,276.45,213.47,213.15C1526.78,807.77,1341,579.85,1341,579.85Z"/><path class="cls-3" d="M1382.5,896.12a2.21,2.21,0,0,1-2.21-2.21c0-14.83.12-29.75.27-45.53.73-76.7,1.48-156-16.82-215.58a2.21,2.21,0,1,1,4.22-1.3c18.5,60.21,17.74,139.87,17,216.92-.15,15.77-.29,30.67-.27,45.48A2.21,2.21,0,0,1,1382.5,896.12Z"/><path class="cls-3" d="M1264.08,791.39a2.12,2.12,0,0,1-.37,0l-120.24-20.13a2.2,2.2,0,0,1-1.81-2.54l16.94-101.21a2.21,2.21,0,0,1,.89-1.43,2.26,2.26,0,0,1,1.65-.38l120.24,20.13a2.21,2.21,0,0,1,1.81,2.54l-16.94,101.21A2.21,2.21,0,0,1,1264.08,791.39Zm-117.7-24.15,115.88,19.4,16.22-96.86-115.88-19.4Z"/><path class="cls-3" d="M1453,759.91l-.27,0c-13.14-1.57-25.88-2.79-37.87-3.61a2.21,2.21,0,0,1-2.05-2.35,2.23,2.23,0,0,1,2.35-2.05c12.07.83,24.88,2.06,38.1,3.64a2.21,2.21,0,0,1-.26,4.4Z"/><path class="cls-3" d="M1339.09,865.36h-.23a2.21,2.21,0,0,1-2-2.42c15.14-145.54-27.43-288-27.86-289.41a2.21,2.21,0,0,1,.27-1.85l22-33.57a2.21,2.21,0,1,1,3.69,2.42l-21.48,32.72c3.79,13,42.29,150.17,27.73,290.15A2.21,2.21,0,0,1,1339.09,865.36Z"/><path class="cls-8" d="M1105.13,707c22.58-61.31,38.51-116.13,35.31-152.3L1192.68,543C1131,716.11,1082.32,856.39,1030.45,878.46l1.1-38.07Z"/><path class="cls-7" d="M1078.45,706c32,28.19,110.52,90.85,117.94,97.27,13.88,12,87.06,69.19,73.08,82.13-6.59,6.1-39.2-22.21-46.5-28.48,7,8.5,17.91,19.27,8.78,26.51-9.4,7.45-25.34-11.07-25.8-11.24,3.66,4.55,19,21,9.6,29.64-9,8.32-21.08-13.75-26.27-17.36,3.91,6.37,23,28,17.07,33.45-7.88,7.26-31.36-21.8-36.37-24.5-12.34-10.66-34.29-24.12-59.56-41.83-59.36-41.59-84.08-62.62-109.11-87.9C991.59,753.87,1048.31,704.88,1078.45,706Z"/><path class="cls-9" d="M1186.86,775.92S957.94,562.24,899.3,655.08c-54.19,85.81,208.34,230,208.34,230Z"/><path class="cls-3" d="M1107.64,887.24a2.21,2.21,0,0,1-1.06-.27c-.32-.18-32.65-18-71.72-44.34a2.21,2.21,0,1,1,2.47-3.66c33.82,22.81,62.54,39.18,69.68,43.18l76.91-105.94c-12.32-11.28-101.4-91.54-178.37-126.2a2.21,2.21,0,0,1,1.81-4c83.15,37.45,180,127.42,181,128.32a2.21,2.21,0,0,1,.28,2.91l-79.21,109.12A2.21,2.21,0,0,1,1107.64,887.24Z"/><rect class="cls-10" x="1265.52" y="458.01" width="61.26" height="111.74" transform="translate(70.83 -151.45) rotate(6.87)"/><polygon class="cls-9" points="1333.73 525.09 1252.7 515.45 1234.99 586.08 1335.92 574.26 1333.73 525.09"/><path class="cls-10" d="M1341,529c-15.25,8.28-51.66-23.58-51.66-23.58l-17-50.22a44.2,44.2,0,0,1,87.76,10.58S1356.54,520.6,1341,529Z"/><path class="cls-10" d="M1353.7,476.75s10.75,14.38,9.69,17.7c-1.27,4-15.28,4.8-15.28,4.8S1354,476.82,1353.7,476.75Z"/><path class="cls-3" d="M1314.33,470.1a38.37,38.37,0,0,1,16.68-2c1.88.23-3.49,14.88-5.17,13.81A38.46,38.46,0,0,1,1314.33,470.1Z"/><g class="cls-11"><circle class="cls-6" cx="1340.75" cy="479.64" r="15.11" transform="translate(-10.09 930.09) rotate(-38.13)"/></g><path class="cls-6" d="M1337.08,507.79a8.39,8.39,0,0,1-5.38-1.94,8.47,8.47,0,0,1-2.77-8.45,2.21,2.21,0,0,1,4.29,1,4,4,0,0,0,5.63,4.54,2.21,2.21,0,1,1,1.93,4A8.44,8.44,0,0,1,1337.08,507.79Z"/><path class="cls-6" d="M1327.24,532.07a2.17,2.17,0,0,1-.64-.1c-17.07-5.21-37.91-23.33-38.79-24.1a2.21,2.21,0,0,1,2.91-3.32c.21.18,21,18.27,37.17,23.21a2.21,2.21,0,0,1-.64,4.32Z"/><path class="cls-7" d="M1355.42,431.59a72.5,72.5,0,0,0-23.4-28.24c-38.53-27.47-92.11-7.9-96.51-6.22a37,37,0,0,0,8.26,24.85,38,38,0,0,0,11.68,9.29c-1.15,6.19-2.89,12.5-2.58,18.17.56,10.37,2,19.35,4.46,25.63,12.49-7.54,30.53-19,48.13-26.45A361.71,361.71,0,0,1,1355.42,431.59Z"/><path class="cls-9" d="M1267.83,492.17c10.26-9.54,23-22.54,46.89-30,19.65-6.12,32.92-9.43,45.22-9.52,3.23-5.79,1.2-18.05-3.72-24.41a248.53,248.53,0,0,0-48.9,11.15,133.35,133.35,0,0,0-53.73,33.39C1255.14,483.77,1262.82,489.3,1267.83,492.17Z"/><circle class="cls-9" cx="1216.54" cy="400.34" r="24.39" transform="translate(-63.96 376.48) rotate(-17.15)"/><path class="cls-3" d="M1253.48,434.31a2.21,2.21,0,0,1-.36-4.38,58.22,58.22,0,0,0,24.9-10.45,2.21,2.21,0,1,1,2.6,3.57,62.54,62.54,0,0,1-26.79,11.23A2,2,0,0,1,1253.48,434.31Z"/><path class="cls-3" d="M1200,399.37h-.16l-13.19-.95a2.21,2.21,0,1,1,.31-4.4l13.19.95a2.21,2.21,0,0,1-.16,4.41Z"/><path class="cls-3" d="M1191.11,413.66a2.21,2.21,0,0,1-.91-4.22l12.05-5.43a2.21,2.21,0,1,1,1.81,4L1192,413.47A2.21,2.21,0,0,1,1191.11,413.66Z"/><path class="cls-7" d="M264,830.14S113.72,943.61,115.3,1053s105,134.08,105,134.08l71.32-148.19Z"/><path class="cls-9" d="M486.47,1037.3l-1.56,33.18s216.23,108.25,234.76,173.63-62.39,248.69-62.39,248.69l-117.91,14,16.95-195.54-155-66s-83.82,237.15-119.24,349.48l-119.8-1.91s35.85-397.76,66.16-497.2c8.17-26.8,31.69-81.87,31.69-81.87Z"/><path class="cls-6" d="M614.3,1182.53l-99.69-60.22L530,1098.87a2.21,2.21,0,0,1,3.69,2.42l-12.86,19.61,92.42,55.82,14.79-19a2.21,2.21,0,1,1,3.48,2.72Z"/><path class="cls-6" d="M240.15,1333.34l-49.53-6.12a2.21,2.21,0,1,1,.54-4.38l45.35,5.6,20.06-116.94-49.5-7.07a2.21,2.21,0,0,1,.63-4.37l54,7.71Z"/><path class="cls-6" d="M251.37,1257.11l-.32,0-50.53-7.32a2.21,2.21,0,1,1,.63-4.37l50.53,7.32a2.21,2.21,0,0,1-.31,4.39Z"/><path class="cls-6" d="M401.31,1247.51a2.29,2.29,0,0,1-.59-.08,2.21,2.21,0,0,1-1.54-2.71L411,1201.66a2.21,2.21,0,1,1,4.26,1.17l-11.81,43.06A2.21,2.21,0,0,1,401.31,1247.51Z"/><path class="cls-6" d="M556.33,1313.48a2.21,2.21,0,0,1-1.16-4.09l38-23.41a2.21,2.21,0,0,1,2.31,3.76l-38,23.41A2.2,2.2,0,0,1,556.33,1313.48Z"/><path class="cls-6" d="M555.43,1146.6a2.21,2.21,0,0,1-1.94-3.26l12.85-23.62a2.21,2.21,0,0,1,3.88,2.11l-12.85,23.62A2.21,2.21,0,0,1,555.43,1146.6Z"/><path class="cls-6" d="M539.38,1506.82l-8,141.46,237.74-23.18s-44-69.54-114.12-71.92l27.34-84.53-6.21.71a61.15,61.15,0,0,0-43.66,26.4Z"/><path class="cls-3" d="M666.19,1521.51H638.93a2.21,2.21,0,0,1,0-4.41h27.26a2.21,2.21,0,0,1,0,4.41Z"/><path class="cls-3" d="M660.71,1539.75H633.46a2.21,2.21,0,1,1,0-4.41h27.26a2.21,2.21,0,1,1,0,4.41Z"/><path class="cls-3" d="M632.26,1565.63a2.21,2.21,0,0,1-1-4.2l24.56-11.82a2.21,2.21,0,0,1,1.91,4l-24.56,11.82A2.19,2.19,0,0,1,632.26,1565.63Z"/><path class="cls-3" d="M656.23,1576.61a2.21,2.21,0,0,1-1.51-3.82l19.91-18.62a2.21,2.21,0,0,1,3,3.22L657.74,1576A2.2,2.2,0,0,1,656.23,1576.61Z"/><path class="cls-3" d="M707.34,1521.51h-.26l-40.92-.61a2.21,2.21,0,0,1-1.33-3.94L697,1491.69a16.68,16.68,0,1,1,10.31,29.81Zm-34.88-4.94,34.68.52h.19a12.27,12.27,0,1,0-7.58-21.93Z"/><path class="cls-3" d="M696.58,1554.56a14.31,14.31,0,0,1-11.68-5.93l-20.49-28a2.21,2.21,0,0,1,2.35-3.44l33.55,8.91a14.49,14.49,0,0,1-3.49,28.49ZM671.65,1523l16.81,23a10.07,10.07,0,1,0,10.72-15.68Z"/><path class="cls-6" d="M162.78,1577,135.63,1716.1l238.69,9.3s-34.14-74.86-103.3-86.74l38.56-80-6.25-.14a61.15,61.15,0,0,0-46.83,20.23Z"/><path class="cls-3" d="M284.78,1606.66H257.53a2.21,2.21,0,1,1,0-4.41h27.26a2.21,2.21,0,1,1,0,4.41Z"/><path class="cls-3" d="M279.31,1624.9H252.05a2.21,2.21,0,1,1,0-4.41h27.26a2.21,2.21,0,0,1,0,4.41Z"/><path class="cls-3" d="M250.86,1650.78a2.21,2.21,0,0,1-1-4.2l24.56-11.82a2.21,2.21,0,0,1,1.91,4l-24.56,11.82A2.19,2.19,0,0,1,250.86,1650.78Z"/><path class="cls-3" d="M273,1665.41a2.21,2.21,0,0,1-1.51-3.82L291.41,1643a2.21,2.21,0,0,1,3,3.22l-19.91,18.62A2.2,2.2,0,0,1,273,1665.41Z"/><path class="cls-3" d="M325.93,1606.66h-.26l-40.92-.61a2.21,2.21,0,0,1-1.33-3.94l32.21-25.25a16.68,16.68,0,1,1,10.31,29.81Zm-34.88-4.94,34.68.52h.19a12.27,12.27,0,1,0-7.58-21.93Z"/><path class="cls-3" d="M315.17,1639.71a14.31,14.31,0,0,1-11.68-5.94l-20.49-28a2.21,2.21,0,0,1,2.35-3.44l33.55,8.91a14.49,14.49,0,0,1-3.49,28.49Zm-24.93-31.53,16.81,23a10.07,10.07,0,1,0,10.71-15.68Z"/><path class="cls-8" d="M237.12,845.35A5.54,5.54,0,0,0,230,841.8C181.85,859,76.6,896.31,92.78,949.68c13.92,45.92,141.46,2.61,187.17-10.52C271.66,907.75,247.21,876.72,237.12,845.35Z"/><path class="cls-8" d="M575.22,865.21C548,850.53,449.57,813.8,377.73,813.8c-62.12,0-143.06,26.64-170.92,36.33-6,2.07-6.53,6.78-5,12.91,5.7,23.25,19.38,78.3,27.08,103.37,15.55-.57,5.07-1.13,20.62-1.7-4.2,24.25-28,140.16-34.58,169,98.12-.28,176.3-62.25,274.43-62.54-.8-25.6,5.78-84.89,5.51-116,11.2,2.54,53.34,14.45,64.93,17C567.12,939.74,567.87,897.73,575.22,865.21Z"/><path class="cls-7" d="M459.33,820.62,494.88,971.9s21.42-34.87-1.17-147Z"/><path class="cls-8" d="M545.7,852C639,890.71,688.58,933,671,967.15c-10.18,19.79-72.43,21-147.67-5.65C530.92,930.48,535.71,889.3,545.7,852Z"/><path class="cls-8" d="M481.69,959.12c18.75,0,27.82-17.82,27.82-28.69a29.14,29.14,0,0,0-29.14-29.14l-7.91-32.38Z"/><path class="cls-6" d="M494.75,958a2.21,2.21,0,0,1-1.09-4.13,26.94,26.94,0,0,0-13.29-50.37h-1.73l-8.32-34.06a2.21,2.21,0,1,1,4.29-1l7.51,30.74a31.35,31.35,0,0,1,13.72,58.57A2.19,2.19,0,0,1,494.75,958Z"/><path class="cls-7" d="M264,830.14l43.86-10.69s99.73,118.91,73.65,150.84-142.35,53.32-142.35,53.32L238.93,981s111.95.25,114.22-20.17S264,830.14,264,830.14Z"/><path class="cls-12" d="M161.82,895.09c39.25,8.62,132.68,24.34,141.74,26.24,16.94,3.55,94.12,12.07,94.12,31.26,0,8.23-6.87,10.12-12.79,8.82,4.26,3.41,10.69,8.2,8,14.89-3.2,7.86-15.1,4.14-15.57,4.21,4.68,3,9.19,7.7,7.35,12.8-2.4,6.63-8.73,8.07-14.93,6.23,1.38,1.46,7.1,5.06,5.08,11.6-1.41,4.57-9,5.61-16.89,4.61-15-3.14-74.19-12.2-103.12-15.24-68-7.13-97.92-13.32-130.17-22.55-12.63-3.61-24.67-12.1-29.77-22.13-6.45-12.71,4.7-22,17.42-28.43C131.41,917.72,142.54,904.88,161.82,895.09Z"/><path class="cls-6" d="M385.24,963a2.21,2.21,0,0,1-1.16-.33,76.74,76.74,0,0,0-27.49-10.45,2.21,2.21,0,1,1,.75-4.35,81.18,81.18,0,0,1,29.07,11,2.21,2.21,0,0,1-1.17,4.08Z"/><path class="cls-6" d="M377.73,982.34a2.19,2.19,0,0,1-1-.22c-.66-.32-1.35-.63-2-.94a77.16,77.16,0,0,0-18.14-5.5,2.21,2.21,0,1,1,.75-4.35,81.63,81.63,0,0,1,19.18,5.81q1.11.49,2.17,1a2.21,2.21,0,0,1-1,4.2Z"/><path class="cls-6" d="M369.35,1001.47a2.21,2.21,0,0,1-.72-.12,77.93,77.93,0,0,0-12-3.1,2.21,2.21,0,0,1,.76-4.35,82.39,82.39,0,0,1,12.73,3.27,2.21,2.21,0,0,1-.72,4.29Z"/><path class="cls-8" d="M319.74,922.6l-22.07,85C172.55,1002.81,84.31,984.4,92,932.9l68.79-39.36Z"/><path class="cls-6" d="M320.11,919.29a2.13,2.13,0,0,1-.4,0c-9.24-1.7-38-5.86-65.86-9.88-31.38-4.54-63.84-9.23-70.69-10.73a2.21,2.21,0,1,1,.95-4.31c6.69,1.47,39.07,6.15,70.37,10.67,29.16,4.21,56.71,8.2,66,9.91a2.21,2.21,0,0,1-.4,4.38Z"/><path class="cls-12" d="M616.23,928.61l4.53-33.52c43.73-14.68,119.89-61.14,136.13-72.9a36.92,36.92,0,0,1,9.21-5.1c16.72-6.24,27.49,5.44,48.12,5.91,6,.14,27.69-6.1,32.15.76,2.26,3.49-.49,9.14-4.82,11.45h0c3.64-1.2,9.38,1,10,4.64,1.77,5.06-.76,9.55-5,10.53a7.32,7.32,0,0,1,7.75,5.82c1.17,5.52-3.7,10.79-9.1,11.8,4-1.54,7.18,2.31,7.23,5.57.08,6-4.31,8.67-16.61,12.67-13.84,4.5-48.53,4.82-48.53,4.82C729.38,937,708.74,955.3,660,976.22,650.19,980.41,632,958.82,616.23,928.61Z"/><path class="cls-12" d="M795,826.05c17.67-15,20.87-24.12,18.4-26.85-4.14-4.58-24.46,2-53,20.66C769.88,822.46,785.53,823.46,795,826.05Z"/><path class="cls-6" d="M781.58,840.87a2.21,2.21,0,0,1-1.21-4.06A86.86,86.86,0,0,0,792.83,827c2-1.93,4-4,5.79-6.08a2.21,2.21,0,1,1,3.34,2.88c-1.91,2.21-4,4.36-6.09,6.4a91.41,91.41,0,0,1-13.1,10.36A2.2,2.2,0,0,1,781.58,840.87Z"/><path class="cls-8" d="M747.93,824.38l38.63,75c-50.84,38.29-101,74.73-139.05,79.46C602.95,951,599.35,921,617.16,890Z"/><polygon class="cls-6" points="833.01 891.31 818.87 891.96 808.02 804.93 830.75 803.1 833.01 891.31"/><path class="cls-6" d="M863.18,1522.31l-.16-2.2L812.08,804.42l15.07-1.07.16,2.2,50.94,715.69ZM816.8,808.51l50.47,709.08,6.27-.45L823.07,808.07Z"/><path class="cls-12" d="M832.69,822.32c-7.3,1.1-11.12,6.53-10.3,9.71.71,2.78,5.3,5.18,10.9,4.56-6.32,1-10,6.15-9.31,9.71.7,3.8,6.62,7.56,13.27,5.35-8.17.81-13,6.31-12.48,9.71s6.57,7.14,14.46,5.75c-8.76,1.12-13.69,6.69-13.08,10.1.55,3,5.69,5.83,12.28,5.75Z"/><path class="cls-6" d="M838.14,885.15c-7.32,0-13.38-3.22-14.16-7.56a7.61,7.61,0,0,1,1.67-5.74,14.73,14.73,0,0,1,3.62-3.43,14.11,14.11,0,0,1-3.21-1.71,7,7,0,0,1-1.54-11,14.33,14.33,0,0,1,2.69-2.62c-.27-.13-.53-.28-.79-.43a9.21,9.21,0,0,1-4.62-6,9.05,9.05,0,0,1,1.79-6.72,12.8,12.8,0,0,1,2-2.17c-2.73-1.1-4.72-2.94-5.31-5.23a7.71,7.71,0,0,1,1.38-6.1,15.46,15.46,0,0,1,10.73-6.34,2.23,2.23,0,0,1,2.51,1.85A2.21,2.21,0,0,1,833,824.5a11.21,11.21,0,0,0-7.71,4.41,3.62,3.62,0,0,0-.78,2.57c.34,1.31,3.56,3.47,8.51,2.91a2.21,2.21,0,0,1,.58,4.38,9.65,9.65,0,0,0-6.43,3.77,4.77,4.77,0,0,0-1.05,3.36,5,5,0,0,0,2.53,3,9.33,9.33,0,0,0,4.86,1.21,21.21,21.21,0,0,1,3.5-.64,2.21,2.21,0,0,1,.91,4.29,15.07,15.07,0,0,1-3.71.74,12.37,12.37,0,0,0-6.23,4,3.86,3.86,0,0,0-1.06,2.58,3.79,3.79,0,0,0,1.69,2.1,13.34,13.34,0,0,0,9.27,1.93l1-.16a2.21,2.21,0,0,1,.66,4.36c-.35.06-.7.12-1.06.16-4.76.83-7.93,3.1-9.34,5a3.5,3.5,0,0,0-.89,2.35c.25,1.39,3.84,3.93,9.81,3.93h.3a2.21,2.21,0,0,1,0,4.41Z"/><circle class="cls-6" cx="340.51" cy="763.61" r="20.47"/><circle class="cls-6" cx="340.51" cy="739.9" r="20.47"/><circle class="cls-6" cx="336.49" cy="789.38" r="20.47"/><path class="cls-12" d="M377.43,838.41a24.91,24.91,0,0,0,24.91-24.91V749.12a24.91,24.91,0,0,0-49.81,0V813.5A24.91,24.91,0,0,0,377.43,838.41Z"/><path class="cls-6" d="M440.14,746.11c-.92,2.72-1.69,11-.7,20.64A110.12,110.12,0,0,0,449.57,803a92.25,92.25,0,0,1-16-78.79C436.86,724.7,436.85,745.62,440.14,746.11Z"/><path class="cls-12" d="M388,684.26c2.17-.21,23-1.92,35.54,12.33,9.34,10.6,10.46,24.2,8.89,47.3-1.85,27.2-6.75,43.2-14.58,48.57-12.37,8.48-49.44-10.49-63.38-34.24-10.06-17.14-8.92-39.22,1.72-56.18S386.64,684.39,388,684.26Z"/><path class="cls-6" d="M403.31,689.81a113.71,113.71,0,0,1-8.18,18.49c-14,25.29-29.62,44.12-42.61,51.44-5-2.13-28.19-20.34-28.85-42.19-.8-26.56,27.85-47.25,52.26-49.06A52.36,52.36,0,0,1,398.69,672,21.85,21.85,0,0,1,409,669.19c16.44-.12,24.58,19.6,29,32.83,6.91,20.69,4,40.6,1.22,46.8a152.43,152.43,0,0,0-35.91-59Z"/><ellipse class="cls-12" cx="361.39" cy="747.29" rx="15.1" ry="17.87" transform="translate(-383.63 381.25) rotate(-38.03)"/><path class="cls-6" d="M356.59,755.57a2.2,2.2,0,0,1-1.48-.57,13,13,0,0,1-1.51-1.63c-3.83-4.9-3.46-11.62.83-15a8.8,8.8,0,0,1,3.71-1.7A2.21,2.21,0,1,1,359,741a4.47,4.47,0,0,0-1.87.86c-2.37,1.86-2.41,5.8-.07,8.78a8.34,8.34,0,0,0,1,1.06,2.21,2.21,0,0,1-1.48,3.85Z"/><path class="cls-6" d="M384.65,706.88a157.46,157.46,0,0,0-9.87,94.66,158,158,0,0,1-3.47-90.93Z"/><path class="cls-6" d="M402.34,795.73a2.24,2.24,0,0,1-.41,0c-10.66-2-21.08-6.86-28.57-13.31a2.21,2.21,0,1,1,2.88-3.35,58.27,58.27,0,0,0,26.51,12.31,2.21,2.21,0,0,1-.41,4.38Z"/><path class="cls-3" d="M432,743.39c-7.73,2.56-15.72-.18-15.72-.18s4.27-8.23,12.32-11.46l.51-.2C437,728.65,432.33,743.26,432,743.39Z"/><path class="cls-13" d="M429.07,731.57c7.9-2.9,16.31,0,16.31,0s-4.27,8.23-12.32,11.46c-.37.15-.74.27-1.1.39a11.19,11.19,0,0,1-2.88-11.81Z"/><path class="cls-3" d="M376.48,735.58s5.21,7.67,13.58,9.93l.78.19c8.1,1.82-1.55-12.59-3.41-12.57A29.11,29.11,0,0,0,376.48,735.58Z"/><path class="cls-13" d="M406.79,743.76s-7.85,3.77-16,1.94a11.28,11.28,0,0,1-3.41-12.56,21,21,0,0,1,5.78.68C401.58,736.09,406.79,743.76,406.79,743.76Z"/><path class="cls-6" d="M417.18,761.53a2.21,2.21,0,0,1-1.39-3.93c1.14-.92,1.81-1.81,1.79-2.39,0-.31-.29-.66-1-1.45a16,16,0,0,1-2.23-3,14.05,14.05,0,0,1-1.66-6.75,2.21,2.21,0,0,1,2.2-2.22h0a2.21,2.21,0,0,1,2.21,2.2,9.7,9.7,0,0,0,1.12,4.66,12,12,0,0,0,1.67,2.24,6.51,6.51,0,0,1,2.09,4.21c.07,2.07-1.08,4.08-3.43,6A2.2,2.2,0,0,1,417.18,761.53Z"/><path class="cls-6" d="M411.72,771.58a9.9,9.9,0,0,1-6.2-2.23,9,9,0,0,1-3-4.66,2.21,2.21,0,1,1,4.27-1.1,4.52,4.52,0,0,0,1.56,2.33A5.36,5.36,0,0,0,413,767a2.21,2.21,0,1,1,1.27,4.22A8.81,8.81,0,0,1,411.72,771.58Z"/><circle class="cls-6" cx="332.84" cy="813.1" r="17.43"/><circle class="cls-6" cx="331.02" cy="833.17" r="17.43"/><path class="cls-9" d="M391.6,839.68a381.2,381.2,0,0,0,28.81,106,81,81,0,0,1-51.56,14.37A313.33,313.33,0,0,1,364,835.33Z"/><path class="cls-9" d="M378,847.39a457.57,457.57,0,0,0,3.58,131.8,97.27,97.27,0,0,1-64.21,2.16A376.09,376.09,0,0,1,347.1,834.5Z"/><path class="cls-14" d="M378.72,962.29a2.21,2.21,0,0,1-2.19-1.92c-1.56-12-2.67-24.25-3.27-36.36a461.64,461.64,0,0,1,2.59-76.87,2.21,2.21,0,0,1,4.38.52,457.43,457.43,0,0,0-2.57,76.13c.6,12,1.69,24.11,3.24,36a2.21,2.21,0,0,1-1.9,2.47Z"/><path class="cls-9" d="M347.44,797.54c5.26,8.49,14.28,13,29,14.4,19.43,1.84,31.62.09,39.47-2.22,8,9.74,4.55,25.38.8,32.2-10.46,19-68.43,18.8-82.09-6.77C326.63,820.14,339.91,802.7,347.44,797.54Z"/><path class="cls-14" d="M380.92,857.56c-13.54,0-28.64-3.2-39.25-11.19a2.21,2.21,0,1,1,2.65-3.53c11.26,8.47,31.4,12.29,49,9.3a2.21,2.21,0,1,1,.74,4.35A78.77,78.77,0,0,1,380.92,857.56Z"/><path class="cls-14" d="M381.17,833.27h-.25a62.9,62.9,0,0,1-29.81-11.39,61.53,61.53,0,0,1-14.24-14.44,2.21,2.21,0,0,1,3.61-2.54,57.1,57.1,0,0,0,13.22,13.41,58.43,58.43,0,0,0,27.71,10.58,2.21,2.21,0,0,1-.24,4.4Z"/><path class="cls-15" d="M428.18,675.29c-16.29-29.37-79.24-43.27-87.27-43.15-5.54,8.07-29.83,48.58-21.94,87.59a226.12,226.12,0,0,1,53.18-33.5C388.63,678.82,415.5,678,428.18,675.29Z"/><path class="cls-9" d="M324.12,744.35a118,118,0,0,1,37.17-37.63C395.76,685,421.91,688.59,433.2,690c2.24-7.3-1-24.23-15.92-28.82-14.43.29-37.1-.51-65.75,15.82-23.78,13.55-29.85,23.77-37.46,35.59C308.81,723.36,315.39,739.88,324.12,744.35Z"/><circle class="cls-9" cx="336.46" cy="626.08" r="19.17" transform="translate(-360.81 763.91) rotate(-72.93)"/><path class="cls-6" d="M330.69,623.66a2.21,2.21,0,0,1-1.67-.76l-9.49-11a2.21,2.21,0,0,1,3.34-2.89l9.49,11a2.21,2.21,0,0,1-1.67,3.65Z"/><path class="cls-6" d="M323.37,626.57a2.2,2.2,0,0,1-.65-.1l-8.82-2.71a2.21,2.21,0,0,1,1.3-4.22l8.82,2.71a2.21,2.21,0,0,1-.65,4.32Z"/><path class="cls-6" d="M337.31,841.92a83.49,83.49,0,0,0,9.93,28.7,85.93,85.93,0,0,0,36.07,33.86c-2.42,1.25-12.27,2.3-24.18-1.51-14.5-4.65-23.14-20.28-23.34-21.1a68.19,68.19,0,0,0,3.7,17.75c2.88,8.35,8.49,16.36,11,19.68-10.46-4.64-22-10.73-28.65-26.48-10.48-24.75-.18-47.51,1.61-51.3Z"/></g></g></svg>